<!DOCTYPE svg PUBLIC "-//W3C//DTD SVG 1.1//EN" "http://www.w3.org/Graphics/SVG/1.1/DTD/svg11.dtd">
<svg xmlns="http://www.w3.org/2000/svg" viewBox="0 0 500 500">
<path fill="#fbfbfb" stroke="#fbfbfb" d="M193.311 117.877c-4.697 2.975-5.299 6.678-5.305 32.653L188 173.56l-25.81-.396-25.81-.395-2.94 2.529-2.94 2.529v143.346l2.806 2.414c2.208 1.899 3.943 2.413 8.142 2.413h5.336l.368 11.59.368 11.59 4.49 3.976 4.49 3.977 22.111-.536 22.11-.536.607 5.802c.803 7.681 1.326 8.816 4.762 10.337 1.601.709 2.91 2 2.91 2.87 0 .87 1.066 2.583 2.369 3.807l2.369 2.225 62.381-3.034c71.404-3.474 72.459-3.574 75.034-7.068 1.103-1.497 4.455-13.729 8.359-30.5 3.584-15.4 8.536-36.372 11.003-46.605 6.868-28.488 6.738-28.895-9.237-28.895-8.023 0-10.181-.304-10.64-1.5-.456-1.189-2.564-1.5-10.172-1.5-11.642 0-13.479-.766-13.109-5.465.27-3.42.244-3.442-4.293-3.738l-4.564-.297-.296-6.184c-.163-3.401.625-11.848 1.75-18.771 2.607-16.042 2.615-19.72.046-22.045-1.886-1.707-2-3.08-2-24.184v-22.374l-14.853-16.221c-8.169-8.922-16.161-17.717-17.76-19.545l-2.908-3.323-16.231-.177c-8.927-.097-16.235-.444-16.24-.771-.004-.328-7.996-.898-17.758-1.268-9.762-.37-21.8-.922-26.75-1.226-7.891-.485-9.393-.305-12.189 1.466m46.61 109.052c-1.477 1.582-15.088 22.117-18.456 27.845-1.444 2.457-1.662 3.69-.873 4.94 1.628 2.581 3.746 2.926 2.971.484-.465-1.466.981-4.617 5.145-11.21a3862.167 3862.167 0 0 0 9.904-15.767c2.261-3.629 4.961-6.934 6-7.344 1.535-.606 1.405-.72-.691-.608-1.418.077-3.218.824-4 1.66M251 233c.589 1.1 1.295 2 1.57 2 .275 0 .019-.9-.57-2s-1.295-2-1.57-2c-.275 0-.019.9.57 2m39.075 3.861c-.593 1.107-1.015 13.724-1.043 31.174-.026 16.122-.156 29.421-.289 29.553-.134.132-2.718.351-5.743.486-8.021.359-10.466 3.385-6 7.426 1.1.995 2 2.233 2 2.751 0 .517.851 2.135 1.89 3.595 1.04 1.46 2.052 3.104 2.25 3.654.198.55.681.893 1.074.762s.475.386.182 1.149c-.643 1.674 1.198 3.054 2.109 1.581.354-.573-1.111-3.842-3.255-7.267-6.76-10.795-6.338-12.477 3.25-12.937l6-.288.265-30.416c.178-20.404.629-30.854 1.372-31.75.864-1.04.648-1.334-.979-1.334-1.148 0-2.536.837-3.083 1.861m14.656.219c.354 1.352.807 1.806 1.057 1.057.24-.722-.038-1.787-.62-2.369-.742-.742-.872-.351-.437 1.312m-50.821.752c.54 1.008 1.766 2.47 2.727 3.25 1.08.878.838.179-.634-1.832-2.626-3.588-3.611-4.255-2.093-1.418m4.654 6.461c.376.986.935 1.541 1.243 1.233.308-.307.001-1.114-.683-1.793-.988-.98-1.102-.865-.56.56m46.722 6.207c.008 2.75.202 3.756.432 2.236.229-1.52.223-3.77-.014-5-.237-1.23-.425.014-.418 2.764M261 249c.589 1.1 1.295 2 1.57 2 .275 0 .019-.9-.57-2s-1.295-2-1.57-2c-.275 0-.019.9.57 2m-86.706 6.674c-1.29 1.969-1.426 2.782-.517 3.085.68.227 1.01.776.735 1.222-.275.445.149 1.059.943 1.363.963.37 1.258.072.886-.897-.306-.798-.278-2.562.063-3.919.61-2.432.793-2.471 12.857-2.781l12.239-.315-12.727-.216-12.727-.216-1.752 2.674m29.456-1.968c1.238.238 3.262.238 4.5 0 1.238-.239.225-.434-2.25-.434s-3.488.195-2.25.434m127.821.865c-1.723 1.724-1.873 2.478-.964 4.847.723 1.885 26.08 2.355 29.459.547 2.18-1.167 2.536-3.963.734-5.765-1.959-1.959-27.219-1.638-29.229.371M265.5 258c0 1.545.337 2.6.75 2.345.413-.254.75-1.31.75-2.345 0-1.035-.337-2.091-.75-2.345-.413-.255-.75.8-.75 2.345m39.579-.417c.048 1.165.285 1.402.604.605.289-.722.253-1.585-.079-1.917-.332-.332-.568.258-.525 1.312m.116 4.917c.02 1.65.244 2.204.498 1.231.254-.973.237-2.323-.037-3-.274-.677-.481.119-.461 1.769m-47.445-.794c1.238.238 3.262.238 4.5 0 1.238-.239.225-.434-2.25-.434s-3.488.195-2.25.434m-72.454 1.038c4.287.188 11.037.187 15-.002 3.962-.19.454-.343-7.796-.342-8.25.001-11.492.156-7.204.344m50.063 15.006c.351 8.663.676 23.067.723 32.009.074 14.096.307 16.379 1.751 17.153 1.545.828 1.627-1.496 1.126-31.76-.297-17.958-.635-32.765-.75-32.902-.115-.137-.947-.25-1.848-.25-1.477 0-1.576 1.562-1.002 15.75m16.969-9.25c.005 3.85.185 5.302.402 3.228.216-2.075.213-5.225-.008-7-.221-1.776-.398-.078-.394 3.772m53.067 11c.001 7.7.158 10.718.348 6.706.191-4.011.189-10.311-.002-14-.192-3.688-.348-.406-.346 7.294m36.355-.76c3.438.196 9.063.196 12.5 0 3.438-.195.625-.355-6.25-.355s-9.687.16-6.25.355m-13.878 1.01c-.666 3.916-.375 5.446 1.197 6.287 2.311 1.237 3.903 1.231 1.945-.007-1.218-.77-1.279-1.49-.337-3.985 1.031-2.733.953-3.045-.764-3.045-1.052 0-1.97.337-2.041.75m33.692.543c.376.986.935 1.541 1.243 1.233.308-.307.001-1.114-.683-1.793-.988-.98-1.102-.865-.56.56m-185.314.738c-4.012 1.613-1.737 9.749 2.424 8.673 1.468-.38 1.506-.495.193-.588-1.937-.138-2.835-2.854-1.863-5.632.641-1.834 1.894-2.025 16.595-2.523l15.901-.538-15.5-.148c-8.525-.082-16.512.259-17.75.756m34.314 6.676c-.542 1.425-.428 1.54.56.56.684-.679.991-1.486.683-1.793-.308-.308-.867.247-1.243 1.233m-22.814 2.036c3.988.189 10.512.189 14.5 0 3.988-.19.725-.346-7.25-.346s-11.238.156-7.25.346M252.272 297c0 2.475.195 3.488.434 2.25.238-1.238.238-3.262 0-4.5-.239-1.238-.434-.225-.434 2.25m55.978 1.689c.962.252 2.538.252 3.5 0 .962-.251.175-.457-1.75-.457s-2.712.206-1.75.457m8.75-.296c0 .216.698.661 1.552.989.89.341 1.291.173.941-.393-.587-.951-2.493-1.406-2.493-.596m13 5.496c-2.838.783-3.97 5.238-1.95 7.671 2.223 2.679 3.521 1.633 3.126-2.516-.467-4.895-.287-4.952 16.824-5.333l12.5-.279-14-.116c-7.7-.064-15.125.194-16.5.573m31.564 1.404c.376.986.935 1.541 1.243 1.233.308-.307.001-1.114-.683-1.793-.988-.98-1.102-.865-.56.56m-44.105.774c-.363.586-.445 1.281-.183 1.543s.743-.218 1.069-1.067c.676-1.762.1-2.072-.886-.476m-127.84.933c-13.379.482-13.939.589-15.5 2.957-.944 1.434-1.098 2.138-.369 1.691.696-.426 1.25-.296 1.25.293 0 .582-.446 1.059-.99 1.059-.545 0-.22.9.722 2 2.26 2.64 3.638 2.56 2.2-.126-.82-1.533-.839-2.782-.069-4.473 1.04-2.281 1.462-2.353 15.353-2.623 7.856-.153 13.609-.503 12.784-.778-.825-.275-7.746-.275-15.381 0m125.659 3.25c-1.499 1.938-2.442 3.75-1.952 3.75.244 0 1.181-1.125 2.082-2.5 1.686-2.573 1.592-3.476-.13-1.25m32.472 2.482c2.337.211 6.163.211 8.5 0 2.337-.21.425-.383-4.25-.383s-6.587.173-4.25.383M252.232 318c0 1.925.206 2.712.457 1.75.252-.962.252-2.538 0-3.5-.251-.962-.457-.175-.457 1.75m-57.448-1.262c2.905.203 7.405.201 10-.004 2.594-.206.216-.371-5.284-.369-5.5.003-7.622.171-4.716.373m91.834 3.071c-.775 1.254 2.061 6.191 3.556 6.191.519 0 .623.52.231 1.155-.443.715-.275.883.44.44.73-.451 1.155.044 1.155 1.346 0 1.132.477 2.059 1.059 2.059s.803.414.491.919c-.872 1.411 6.397 3.534 7.686 2.245.736-.736.444-.893-.972-.523-1.599.418-2.839-.664-5.894-5.142-6.174-9.049-6.975-9.947-7.752-8.69" fill-rule="evenodd"/>
<path fill="#749bab" stroke="#749bab" d="M190.309 121.25c-.445.688-1.034 13.063-1.309 27.501l-.5 26.251 5.691-.001c3.13 0 5.9.337 6.155.749.256.412-4.78.453-11.191.09-42.014-2.381-54.946-1.313-55.271 4.565-.097 1.759-.191 1.807-.583.296-.257-.99.299-3.015 1.235-4.5l1.701-2.701-2.752 2.656-2.752 2.657.095 19.343c.052 10.639.112 42.582.134 70.983.044 60.179-.772 55.705 10.327 56.596l6.711.539v22.471l4.568 4.211 4.567 4.21 22.384-.722 22.383-.721.299 6.889c.22 5.075.648 6.816 1.623 6.613.729-.151 1.039.187.69.752s.461 1.443 1.799 1.952c1.356.515 2.718 2.059 3.076 3.485 1.288 5.13 3.452 5.583 21.611 4.522 9.075-.53 38.83-2.074 66.123-3.432 27.293-1.358 50.372-2.757 51.287-3.108 2.769-1.062 4.335-5.373 8.547-23.525a7434.279 7434.279 0 0 1 7.536-32.121c12.239-51.481 11.795-48.735 8.284-51.193-1.618-1.134-4.71-1.557-11.377-1.557-5.876 0-10.442-.537-12.746-1.5-2.671-1.116-8.268-1.553-21.872-1.708-10.055-.114-14.185-.355-9.177-.535l9.104-.328-.104-2.962-.105-2.962-9.657-.003-9.658-.002-.417 5.75c-.229 3.163-.515 12.613-.636 21l-.22 15.25h5.433c3.928 0 6.088.543 7.794 1.961l2.361 1.96-3.117 5.844c-1.714 3.215-5.707 9.87-8.873 14.79-3.166 4.92-6.386 9.957-7.156 11.195-.77 1.238-2.253 2.25-3.295 2.25-4.476 0-4.281.235-19.523-23.5-7.488-11.662-7.078-13.5 3.017-13.5h6.483l-.077-21.448-.077-21.447-4.691-.372-4.691-.373 4.75-.18L289 254v-8.443c0-10.067 1.228-11.557 9.523-11.557 6.921 0 7.477.833 7.477 11.2v8.8l6.75-.116c3.712-.064 5.944-.325 4.958-.581-1.11-.289-1.607-1.1-1.306-2.134.267-.918 1.003-6.169 1.636-11.669.632-5.5 1.782-13.6 2.554-18 2.947-16.778 1.172-19.295-13.902-19.716l-10.19-.284-2.5-4.934c-1.375-2.714-3.125-5.135-3.889-5.38-.764-.245-1.144-.05-.844.434.717 1.157-74.095-.355-76.894-1.554-1.169-.501-3.153-2.408-4.407-4.238-2.25-3.282-2.233-3.276 1.261.422l3.543 3.75 16.865-.204 16.865-.203-17.5-.607c-9.625-.333-17.566-.692-17.646-.796-.08-.105-1.595-2.449-3.366-5.209-4.437-6.914-7.335-8.981-12.59-8.981h-4.332l-.283-25.574c-.156-14.066.077-26.216.517-27 .983-1.754.129-1.906-.991-.176m91.168.788c-.787 1.272-.701 32.221.097 35.402.875 3.485 5.737 4.56 20.625 4.56 16.633 0 17.926-.752 11.56-6.724-2.342-2.197-4.78-4.846-5.416-5.886-.636-1.039-1.761-1.74-2.5-1.557-.739.184-1.043.034-.677-.332.366-.367-.984-2.342-3-4.39C295.627 136.469 289 129.1 289 128.471c0-.779-2.666-3.471-3.437-3.471-.319 0-.426 6.318-.237 14.041.188 7.722-.026 13.46-.476 12.75-.451-.71-.826-7.677-.835-15.482-.014-12.945-.761-17.147-2.538-14.271m-68.843 32.471c-1.953 1.953-2.12 4.843-.363 6.301.744.618 10.424 1.35 23.342 1.767l22.071.713 1.658-2.368c4.163-5.943 2.297-6.528-23.458-7.354-19.258-.617-21.794-.515-23.25.941m1.885.461c-.225.364 8.454.71 19.286.77 10.832.06 19.02-.054 18.195-.255-2.886-.7-37.076-1.171-37.481-.515m-2.269 18.147c-1.044 1.072-1.818 6.519-1 7.043.137.089 19.576.651 43.196 1.25 42.242 1.072 42.977 1.057 44.79-.891 2.734-2.939 1.887-5.818-1.942-6.597-7.022-1.427-83.73-2.153-85.044-.805m8.539.624c3.459.196 8.859.195 12-.003s.311-.358-6.289-.356c-6.6.002-9.17.164-5.711.359m29.014 1.005c5.667.179 14.667.178 20-.001 5.333-.18.697-.326-10.303-.325-11 .001-15.364.148-9.697.326m38.947.977c1.788.222 4.712.222 6.5 0 1.788-.221.325-.403-3.25-.403s-5.038.182-3.25.403m-85.239 3.654c.946 1.443 1.908 2.623 2.139 2.623.724 0-1.605-3.854-2.759-4.567-.604-.374-.325.501.62 1.944m55.292 11.369c5.667.179 14.667.178 20-.001 5.333-.18.697-.326-10.303-.325-11 .001-15.364.148-9.697.326m-106.942 7.164-2.361 1.911-.095 29.839c-.094 29.82-.094 29.825.521 7.62.339-12.276 1.053-22.659 1.594-23.2.539-.538 3.905-1.36 7.48-1.827 4.187-.546 6.411-1.275 6.25-2.05-.138-.662.474-1.203 1.358-1.203 1.243 0 1.464-.625.97-2.75-.474-2.04-.377-2.363.376-1.25.683 1.009 1.02 1.091 1.031.25.009-.737 1.348-1.256 3.265-1.265 1.787-.009 3.925-.46 4.75-1.003 1.17-.771.95-.932-1-.735-1.668.169-2.5-.246-2.5-1.247 0-1.269 2.041-1.466 13.25-1.28 9.872.164 13.254-.091 13.265-1 .011-.878.252-.848.857.107.652 1.029 1.717 1.098 4.735.309 4.943-1.293 13.488-1.19 15.219.183.92.73 1.533.733 2 .008 1.063-1.646 17.504-1.786 16.904-.143-.264.724-1.02 1.192-1.679 1.041-.66-.151-.934.156-.608.682.359.581 1.592.437 3.142-.367 3.004-1.558 15.039-1.957 15.923-.527.335.543 2.271.934 4.301.869l3.691-.119-3-.763c-1.969-.501.266-.746 6.5-.714 8.182.043 8.668.131 3.5.633-5.039.49-3.698.711 8.367 1.382 15.05.837 16.501.638 13.957-1.905-1.354-1.354-9.408-1.671-61.94-2.437-83.633-1.219-77.247-1.295-80.023.951M207.5 200c-.357.577.57.994 2.191.985 2.181-.012 2.474-.232 1.309-.985-1.921-1.242-2.733-1.242-3.5 0m73.75-.311c.962.252 2.538.252 3.5 0 .962-.251.175-.457-1.75-.457s-2.712.206-1.75.457m-28.5.973c.688.278 1.813.278 2.5 0 .688-.277.125-.504-1.25-.504s-1.937.227-1.25.504m-49.671 1.671c-.09 2.098 2.098 1.775 2.685-.395.321-1.189.223-1.202-.567-.075-.806 1.151-1.039 1.151-1.497 0-.365-.917-.568-.763-.621.47m-19.434.902c.26.421 4.046.765 8.414.765 4.368 0 7.941-.344 7.941-.765 0-.42-3.786-.764-8.414-.764-4.627 0-8.201.344-7.941.764m52.471 28.015c-2.163 3.438-4.892 7.6-6.065 9.25-13.414 18.87-13.748 22.5-2.072 22.5H235v30.566c0 19.157.386 31.287 1.035 32.5.871 1.626 2.137 1.934 7.965 1.934 5.828 0 7.094-.308 7.965-1.934.649-1.213 1.035-13.343 1.035-32.5V263h5.429c9.869 0 10.689-3.044 3.809-14.146a6062.18 6062.18 0 0 1-8.647-14c-5.509-8.956-6.44-9.854-10.222-9.854-2.987 0-3.715.628-7.253 6.25m-29.609 11.739c-.35.566.051.734.941.393 1.732-.665 2.049-1.382.611-1.382-.518 0-1.216.445-1.552.989m-3.428 6.594c.048 1.165.285 1.402.604.605.289-.722.253-1.585-.079-1.917-.332-.332-.568.258-.525 1.312m-13.579 3.184c-15.059.288-16.5.802-16.5 5.889 0 3.724 2.893 4.344 20.279 4.344 18.609 0 21.191-.915 19.13-6.78-1.201-3.419-3.841-3.817-22.909-3.453m94.313 8.916c.721.289 1.584.253 1.916-.079.332-.332-.258-.568-1.312-.525-1.165.048-1.402.285-.604.604m-66.833 2.841c-.696.838-1.071 1.718-.835 1.955.237.236.98-.449 1.651-1.524 1.452-2.325.968-2.58-.816-.431m110.652 15.591c-1.626 2.322-1.195 4.706 1.199 6.635 1.682 1.355 26.523 1.643 31.169.361 2.838-.783 3.97-5.238 1.95-7.671-2.193-2.643-32.411-2.048-34.318.675M189.211 280c-14.575.51-16.151.979-16.196 4.816-.057 4.89 1.042 5.184 19.365 5.184 18.171 0 20.653-.612 20.605-5.079-.051-4.743-4.216-5.605-23.774-4.921m138.285 25.365c-2.251 3.437-.521 7.593 3.229 7.756 9.386.407 29.976-.483 31.025-1.342 1.59-1.303 1.622-6.007.05-7.579-.832-.832-6.039-1.2-16.977-1.2-15.485 0-15.806.044-17.327 2.365M186 306.734c-12.577.374-15.917 2.894-11.622 8.768 1.903 2.602 33.959 2.408 36.866-.223 4.898-4.432.278-9.364-8.494-9.068-3.437.116-10.975.351-16.75.523" fill-rule="evenodd"/>
<path fill="#3d5a6e" stroke="#3d5a6e" d="M282.134 136.185c-.143 15.714.469 18.893 4.071 21.145 2.409 1.506 31.882 3.423 30.439 1.98-.405-.405-7.005-.98-14.667-1.277-18.329-.713-18.183-.587-18.153-15.66.012-5.98-.334-13.123-.768-15.873-.596-3.782-.821-1.422-.922 9.685m-69.467 18.482c-1.457 1.456-.541 4.43 1.616 5.251 2.971 1.129 42.834 1.818 44.467.768.688-.442 1.214-1.34 1.171-1.995-.061-.917-.19-.918-.562-.004-.615 1.508-43.18.583-45.155-.981-.712-.565-1.064-1.629-.781-2.366.562-1.464.283-1.712-.756-.673m.533 18.533c-1.761 1.761-1.462 4.585.55 5.201 2.574.787 82.799 2.709 84.579 2.026 3.157-1.211 2.635-6.427-.643-6.427-.587 0-.239.607.776 1.348 5.215 3.814-3.933 4.1-70.351 2.201-13.591-.388-16.428-1.257-13.931-4.265 1.345-1.622.619-1.683-.98-.084m9.55-.477c1.787.222 4.713.222 6.5 0 1.787-.221.325-.403-3.25-.403s-5.037.182-3.25.403m40.978.999c1.775.221 4.925.224 7 .008 2.074-.217.622-.397-3.228-.402-3.85-.004-5.548.173-3.772.394M131.243 250c-.117 38.225.118 70.02.522 70.656.663 1.043.639-71.41-.041-120.656-.148-10.725-.364 11.775-.481 50m12.642-51.095c-4.28 4.229-5.77 19.389-8.409 85.541-.24 6.021-.698 14.717-1.017 19.325-.376 5.432-.195 8.842.515 9.697.602.726 1.136 3.398 1.187 5.939.101 5.024.226 5.114 8.089 5.844l3.75.347v-62.076c0-53.745.203-62.366 1.51-64.233 1.439-2.055 1.381-2.152-1.25-2.068-1.518.048-3.487.806-4.375 1.684m90.494 6.422c-1.309 1.554-2.379 3.176-2.379 3.604 0 .427-1.104 1.968-2.452 3.423L227.095 215h-25.082c-31.401 0-30.446-.456-32.462 15.5-1.666 13.185-2.44 15.308-6.005 16.485-3.116 1.028-3.405 1.509-4.393 7.308-2.311 13.571-3.119 21.788-4.74 48.207-.202 3.3-.43 12.75-.507 21-.077 8.25-.539 17.771-1.027 21.157-.488 3.386-.626 6.839-.306 7.673 1.06 2.763 7.284 4.944 12.312 4.314 2.538-.318 11.806-.658 20.595-.754l15.98-.176.67 2.393c.369 1.316.715-7.449.77-19.477l.1-21.871-12.52.723c-14.377.829-17.48-.126-17.48-5.383 0-4.808 1.968-5.512 16.623-5.94l13.377-.391v-16.073l-12.25.639c-14.251.744-17.07-.05-17.551-4.942-.466-4.74 1.13-5.304 15.867-5.612l13.434-.28.29-8.25.291-8.25H189.24c-14.904 0-16.24-.418-16.24-5.078 0-4.297 1.703-4.842 16.05-5.142l13.419-.28.639-3.938c1.048-6.465 3.341-7.562 15.795-7.562h10.682l5.171-8c4.824-7.462 5.404-8 8.632-8 3.758 0 5.11 1.292 10.95 10.466 2.49 3.911 3.94 5.15 6.822 5.828 2.911.686 4.509 2.073 7.814 6.784l4.154 5.922H289v-8.965c0-10.474.477-11.035 9.378-11.035 7.394 0 8.622 1.741 8.622 12.223V254h8.74l1.713-13.25c.942-7.287 2.303-17.057 3.025-21.711 1.449-9.338.784-12.896-2.575-13.775-1.139-.298-1.626-.817-1.08-1.153.545-.336-13.48-.585-31.166-.553-30.764.055-31.204.03-10.157-.573 21.869-.626 21.819-.629-8.371-.557l-30.372.072-2.378 2.827m2.397-.577c-.844.963-2.234 3.133-3.089 4.823-2.978 5.884-2.968 5.882-29.088 6.462l-24.099.535 24 .193c27.034.217 26.488.351 30.39-7.459 1.153-2.308 2.887-4.657 3.853-5.22.966-.563 1.264-1.037.662-1.054-.602-.016-1.786.757-2.629 1.72m-60.218 12.157c-.309.498.34.671 1.441.383 2.335-.611 2.63-1.29.56-1.29-.793 0-1.693.408-2.001.907m30.175 27.843c-2.993 3.321-3.299 7.25-.564 7.25 3.758 0 6.831 2.709 6.831 6.022 0 3.225-2.266 4.978-6.434 4.978-2.537 0-2.566.088-2.566 7.875v7.875l3.155.631c8.061 1.612 7.869 10.619-.226 10.619H204v16h2.845c5.172 0 8.063 5.949 4.584 9.429-.865.864-2.911 1.571-4.548 1.571h-2.976l.298 25.992.297 25.992 2.75 2.549c1.512 1.401 2.75 3.173 2.75 3.936 0 .763.761 2.149 1.69 3.078 1.871 1.872.244 1.902 61.31-1.139 16.225-.808 38.5-1.909 49.5-2.446 24.154-1.179 26.156-1.508 28.2-4.628.873-1.332 3.551-10.839 5.952-21.128 2.401-10.288 5.213-22.306 6.25-26.706 1.037-4.4 3.773-16.1 6.079-26 2.307-9.9 4.69-19.727 5.296-21.838 2.114-7.366 3.204-7.129-34.136-7.425L307 266.973V297h5.066c11.458 0 11.472 2.452.121 20.539-4.846 7.722-9.107 14.81-9.468 15.75-.679 1.772-6.189 2.402-8.268.946-1.041-.729-5.408-7.244-15.308-22.835-7.253-11.423-6.843-13.068 3.392-13.594l5.965-.306.184-15.25c.101-8.387-.124-15.236-.5-15.218-1.037.048-4.292 2.672-4.501 3.627-.1.463-.504.734-.897.603s-.486.357-.207 1.083c.279.727-.144 1.322-.941 1.322-.903 0-1.225-.596-.855-1.584.51-1.365.361-1.395-1.083-.221-.921.749-2.372 1.094-3.225.767-.889-.341-1.794.038-2.12.888-.42 1.095-2.227 1.483-6.903 1.483-3.484 0-6.612.45-6.952 1-.34.55-2.279 1.093-4.309 1.207-2.03.114 2.609.471 10.309.793l14 .586-13.75.207L253 279v46.954l-2.516 1.649c-1.807 1.183-3.913 1.514-7.467 1.173-8.275-.795-8.017.038-8.017-25.898 0-22.991-.347-25.075-3.443-20.655-.856 1.222-1.557 1.705-1.557 1.072 0-.632 1.194-2.089 2.653-3.236 3.157-2.484 2.664-3.51-1.014-2.112-1.452.552-2.639.61-2.639.128 0-1.859-6.844-.87-8.82 1.275-2.568 2.788-3.176 7.744-4.001 32.65-.897 27.081-2.091 15.832-2.157-20.316l-.045-24.815 2.762-2.753c1.633-1.628 2.637-3.596 2.457-4.817-.167-1.135 1.52-4.887 3.75-8.337 2.23-3.449 4.054-6.652 4.054-7.117 0-1.799-18.578-.969-20.267.905m53.267-.954c0 .438 1.563 3.251 3.474 6.25 1.911 3 3.486 6.692 3.5 8.204L267 261h10.333c11.181 0 11.703-.146 10.942-3.058-.431-1.648-1.408-1.942-6.457-1.942-7.446 0-8.836-.757-13.84-7.53-3.558-4.816-7.978-7.406-7.978-4.674m47 14.176v3.108l9.883-.155 9.882-.155-.704-2.635c-.687-2.572-.923-2.643-9.883-2.953l-9.178-.318v3.108m12.75 7.775c7.288.171 19.212.171 26.5 0 7.288-.17 1.325-.31-13.25-.31s-20.538.14-13.25.31m-55 7.915c.688.278 1.813.278 2.5 0 .688-.277.125-.504-1.25-.504s-1.937.227-1.25.504m18.389 2.371c-1.298 1.082-1.93 1.967-1.405 1.967.526 0 1.771-.9 2.766-2 2.287-2.527 1.695-2.513-1.361.033m58.072 1.891c-13.755.596-15.158 1.081-15.196 5.255-.038 4.223 2.321 4.821 19.033 4.821h15.906l1.665-2.541c1.982-3.025.592-7.45-2.348-7.473-.974-.007-2.671-.154-3.771-.325-1.1-.172-7.98-.053-15.289.263M229.158 287c0 1.375.227 1.938.504 1.25.278-.687.278-1.812 0-2.5-.277-.687-.504-.125-.504 1.25m-1.079 4.583c.048 1.165.285 1.402.604.605.289-.722.253-1.585-.079-1.917-.332-.332-.568.258-.525 1.312m-.921 4.417c0 1.375.227 1.938.504 1.25.278-.687.278-1.812 0-2.5-.277-.687-.504-.125-.504 1.25m-1.079 4.583c.048 1.165.285 1.402.604.605.289-.722.253-1.585-.079-1.917-.332-.332-.568.258-.525 1.312M338 302.676c-10.176.402-12 1.313-12 5.992 0 4.827 3.519 5.679 20.285 4.911C362.115 312.854 364 312.26 364 308c0-5.25-4.511-6.174-26-5.324m-112.921 1.907c.048 1.165.285 1.402.604.605.289-.722.253-1.585-.079-1.917-.332-.332-.568.258-.525 1.312m-1 5c.048 1.165.285 1.402.604.605.289-.722.253-1.585-.079-1.917-.332-.332-.568.258-.525 1.312m-9.793 30.917c.008 2.75.202 3.756.432 2.236.229-1.52.223-3.77-.014-5-.237-1.23-.425.014-.418 2.764m.793 13.083c.048 1.165.285 1.402.604.605.289-.722.253-1.585-.079-1.917-.332-.332-.568.258-.525 1.312" fill-rule="evenodd"/>
<path fill="#1d394c" stroke="#1d394c" d="M215.75 178.662c.688.278 1.813.278 2.5 0 .688-.277.125-.504-1.25-.504s-1.937.227-1.25.504m8.018.063c1.797.222 4.497.218 6-.01 1.503-.229.032-.411-3.268-.405-3.3.005-4.529.192-2.732.415m35.982 1.007c2.337.211 6.163.211 8.5 0 2.337-.21.425-.383-4.25-.383s-6.587.173-4.25.383M145.473 208.75c-.358 2.613-.846 5.875-1.085 7.25-.417 2.398-.498 100.943-.088 105.917.11 1.33.771 2.608 1.47 2.84 1.018.339 1.257-11.61 1.207-60.167-.035-33.325-.241-60.59-.459-60.59-.217 0-.688 2.137-1.045 4.75m92.75-3.193c-2.342 1.64-2.951 3.443-1.164 3.443.582 0 .8-.419.484-.931-.317-.512-.006-1.259.691-1.66.696-.401.932-.361.525.089-.408.45-.183 1.508.5 2.352.99 1.224.988 1.382-.009.783-.715-.429-1.25-.252-1.25.415 0 .641-.652.916-1.449.61-1.018-.391-1.265-.076-.83 1.057.37.965.209 1.36-.4.983-.561-.346-1.984.48-3.164 1.836-1.489 1.713-3.177 2.466-5.526 2.466h-3.383l1.526 4.75c.839 2.613 2.183 6.028 2.986 7.59 1.121 2.182 1.186 3.109.278 4-.703.691-1.051.734-.859.106.176-.58-.579-2.737-1.679-4.793-2.318-4.334-5.654-5.641-8.116-3.18-1.325 1.325-1.842 1.404-2.476.379-.62-1.004-.945-.919-1.443.378-.353.92-2.167 2.176-4.03 2.791-1.864.616-3.286 1.485-3.162 1.932.281 1.007-9.643 9.047-11.166 9.047-2.559 0 1.118-7.581 5.592-11.532 1.265-1.117 2.301-2.58 2.301-3.25 0-.67.338-1.218.75-1.218s2.021-1.593 3.575-3.541l2.825-3.54-15.805.134c-15.59.133-15.84.17-18.325 2.714-1.386 1.418-1.988 2.268-1.338 1.889.803-.469.739.198-.198 2.077-.758 1.522-1.69 5.804-2.07 9.517l-.69 6.75 4.388.005c6.367.007 10.575 3.484 9.156 7.565-.56 1.612-1.524 2.817-2.143 2.68-.619-.138-1.125.2-1.125.75 0 .599 3.957 1 9.872 1h9.872l.631-3.945c.972-6.075 3.169-7.055 15.817-7.055h10.747l5.2-7.75c2.86-4.262 5.622-8.031 6.137-8.375.516-.344.663-1.493.326-2.553-1.094-3.449 1.445-5.101 9.398-6.116 8.291-1.057 10-.462 10 3.482 0 4.417-1.634 6.189-5.239 5.685-2.314-.324-2.844-.176-1.824.51 1.161.781 1.208 1.411.244 3.291-1.067 2.083-1.136 2.104-.656.194.356-1.419-.023-2.345-1.137-2.772-1.323-.508-1.435-.358-.538.723.623.751.876 1.622.561 1.936-.943.944 2.723 5.78 3.853 5.082.622-.385.745-.161.304.552-1.049 1.699 2.108 6.111 4.373 6.111 3.419 0 4.992 1.14 8.767 6.353 4.864 6.719 4.662 6.614 12.799 6.632l7.006.015.049-7.75c.051-8.215.506-12.143 1.396-12.062 3.472.315 3.713-.276 4.851-11.893.867-8.855.865-11.879-.011-12.42-1.72-1.063-1.943-4.144-.253-3.496.765.293 1.698.036 2.074-.572.484-.783-.792-.909-4.38-.433-2.784.369-8.258.176-12.164-.43-3.905-.606-7.658-.906-8.338-.666-.68.24 1.688.894 5.263 1.452l6.5 1.015-5.75.128c-3.163.07-5.75.577-5.75 1.127s-1.8 1-4 1-4 .45-4 1-.505 1-1.122 1c-3.029 0 1.783-3.015 4.994-3.129 2.588-.093 1.622-.451-3.372-1.25-3.85-.617-7.562-1.485-8.249-1.929-.686-.445-3.985-.107-7.33.75-7.164 1.835-6.921 1.813-6.921.624 0-.513 1.238-1.121 2.75-1.35 2.357-.357 2.246-.438-.777-.566-1.941-.083-4.528.551-5.75 1.407M261 204.383c0 .91 3.898 1.296 5.139.51.925-.586.321-.867-1.889-.878-1.788-.008-3.25.158-3.25.368m-14 2.604c-1.029.656-.323.767 2.25.354 2.478-.398 3.75-.219 3.75.528 0 .622.787 1.124 1.75 1.116 1.37-.012 1.454-.203.387-.879-1.151-.729-1.151-.948 0-1.406.75-.298-.437-.571-2.637-.606-2.2-.035-4.675.367-5.5.893m-16.595 5.263-1.905 2.25 2.25-1.905c2.114-1.79 2.705-2.595 1.905-2.595-.19 0-1.202 1.012-2.25 2.25m-59.847 15.25a444.568 444.568 0 0 1-1.632 10.434c-1.009 5.922-1.175 8.648-.482 7.956.766-.767 3.726-20.886 3.261-22.169-.243-.672-.76 1.029-1.147 3.779M254.5 224c.34.55.816 1 1.059 1s.441-.45.441-1-.477-1-1.059-1-.781.45-.441 1m-8.5.393c0 .216.698.661 1.552.989.89.341 1.291.173.941-.393-.587-.951-2.493-1.406-2.493-.596M316.158 244c0 1.375.227 1.938.504 1.25.278-.687.278-1.812 0-2.5-.277-.687-.504-.125-.504 1.25m-150.434 14.5c-.975 6.6-2.905 19.425-4.287 28.5-1.383 9.075-3.383 23.25-4.444 31.5s-2.546 19.167-3.301 24.261c-1.102 7.442-1.123 9.466-.11 10.307.95.788 1.151.601.817-.761-.244-.994.198-5.857.982-10.807s1.469-7.538 1.522-5.75L157 339h13.5c10.13 0 13.438.306 13.25 1.226-.138.675.72 1.375 1.906 1.557 2.622.403 3.077 11.193.472 11.209-1.14.007-1.149.277-.057 1.593.934 1.126 2.201 1.4 4.372.944 1.681-.352 4.952-.599 7.269-.547l4.212.093.288-9.113c.158-5.013.148-13.491-.024-18.84l-.312-9.727-11.688.396c-14.373.488-17.188-.35-17.188-5.111 0-5.89 1.932-6.68 16.329-6.68H202v-15.578l-14.286.262c-14.122.259-14.288.236-14.489-1.961-.778-8.497-.421-8.723 13.816-8.723 15.673 0 14.959.437 14.959-9.167v-7.954l-13.968.465c-7.683.256-13.887.17-13.788-.19.1-.359-.367-1.641-1.036-2.847-1.745-3.144.304-7.259 3.981-7.995 1.546-.309 2.811-1.004 2.811-1.544 0-.545-.778-.659-1.75-.256-2.185.907-3.302.913-5.423.03-2.335-.972-3.666 1.93-4.286 9.343-.445 5.316-.285 6.125 1.224 6.189.954.041 3.474.843 5.6 1.782 4.871 2.153 3.414 3.797-3.827 4.317-5.7.41-5.824.671-7.092 14.91l-.675 7.584h3.654c2.05 0 3.119-.331 2.435-.754-.671-.414-1.324-1.466-1.452-2.338-.128-.871.185-1.326.696-1.011.511.316.67.993.353 1.505-.316.512.127.931.984.931s1.559.41 1.559.912c0 .501.787.779 1.75.617.963-.162 1.637-.797 1.5-1.412-.138-.614.2-1.117.75-1.117s1 .45 1 1 .73 1 1.622 1c1.329 0 1.398.271.378 1.5-.898 1.082-3.273 1.5-8.515 1.5-8.724 0-7.799-1.67-10.675 19.286-1.224 8.918-2.402 15.359-2.619 14.315-.362-1.74 2.51-24.398 4.765-37.601.517-3.025 1.437-9.325 2.044-14 .608-4.675 1.795-12.578 2.637-17.563.843-4.985 1.381-10.385 1.196-12-.185-1.615-1.134 2.463-2.109 9.063m149.508-8.5c0 1.925.206 2.713.457 1.75.252-.963.252-2.537 0-3.5-.251-.963-.457-.175-.457 1.75M169 262.383c0 .211.901.619 2.001.907 1.101.288 1.75.115 1.441-.383-.538-.871-3.442-1.313-3.442-.524m44.488 2.272c-3.631 3.631-4.885 13.941-1.988 16.345 1.309 1.086 1.501.368 1.506-5.628.004-4.013.603-8.016 1.441-9.622 1.646-3.155 1.392-3.446-.959-1.095m102.762 3.09-9.25.33V297h3.5c2.444 0 3.5-.452 3.5-1.5 0-1.264 2.276-1.5 14.484-1.5h14.484l3.266-2.971 3.266-2.97-10.55-.03c-11.411-.031-12.95-.638-12.95-5.107 0-4.002 1.492-4.59 13.417-5.286 12.478-.729 11.516-.354 12.066-4.704.798-6.302-.134-6.439-35.233-5.187m-32.193 5.005c-1.83 2.613-2.479 3.993-1.442 3.067 1.812-1.617 5.884-7.817 5.134-7.817-.2 0-1.861 2.137-3.692 4.75m2.943.515c0 2.442-5.367 5.735-9.345 5.735-3.73 0-4.539.71-6.155 5.404-1.371 3.983-4.265 5.696-5.615 3.325-.554-.974-1.507-1.463-2.116-1.086-.728.45-.879.085-.439-1.061.369-.96.67-2.159.67-2.664 0-1.224 2.742-1.182 3.167.049.183.532.861-.16 1.507-1.539l1.175-2.506-8.175.289-8.174.289-.5 23.788c-.564 26.825-.181 25.671-8.527 25.697-9.586.029-9.473.335-9.473-25.601 0-14.987-.339-22.292-1.016-21.874-.559.346-.71 1.124-.336 1.729.448.726.065.865-1.125.408-1.456-.559-1.583-.424-.655.694 1.343 1.618-.898 8.241-2.344 6.926-.463-.422-.545.061-.18 1.073.364 1.012.354 2.34-.023 2.95-.377.61-.794 2.032-.927 3.16-.132 1.127-1.637 7.193-3.345 13.478-1.707 6.286-4.219 17.469-5.583 24.852-1.363 7.383-2.766 14.568-3.117 15.967l-.638 2.542 17.394-.67c62.87-2.421 65.205-2.673 66.937-7.229 2.12-5.575 2.77-13.36 1.038-12.433-4.136 2.214-7.026.068-13.645-10.132-3.539-5.454-6.435-10.173-6.435-10.487 0-.313-1.575-2.716-3.5-5.338-5.8-7.901-4.476-11 4.7-11h5.8l.105-5.25c.172-8.599-.204-20.182-.67-20.648-.239-.24-.435.284-.435 1.163m-56.933 7.164c-1.255 1.335-2.044 3.023-1.753 3.75.362.905.553.793.607-.356.043-.923 1.265-2.611 2.714-3.75 1.449-1.14 2.202-2.073 1.674-2.073s-1.987 1.093-3.242 2.429m-3.635 9.321c-.362 2.063-1.539 7.575-2.615 12.25-1.077 4.675-3.735 17.471-5.907 28.436-2.171 10.965-4.165 20.152-4.429 20.417-.265.264-.481-7.652-.481-17.592v-18.073l-2.356 1.112c-2.443 1.153-2.524 1.846-2.75 23.7-.009.825.1 4.524.242 8.22.142 3.696.001 6.977-.313 7.291-1.049 1.048.359 15.612 1.771 18.318l1.394 2.671.006-2.421c.003-1.332 1.54-9.882 3.414-19 1.874-9.119 5.038-24.679 7.031-34.579 1.993-9.9 4.461-21.712 5.484-26.25 1.023-4.538 1.479-8.25 1.014-8.25-.466 0-1.143 1.688-1.505 3.75M259 287c-2.327.745-2.349.808-.309.9 1.205.055 2.469-.35 2.809-.9.34-.55.479-.955.309-.9a2527 2527 0 0 1-2.809.9m-47.991 2.489c-.68.819-1.522 1.311-1.872 1.094-.35-.217-.637 3.163-.637 7.51 0 4.347.305 7.904.679 7.905.373.001 1.385.709 2.25 1.573 1.428 1.429 1.571.611 1.571-9 0-11.181-.052-11.418-1.991-9.082M254 295.603c0 .297.675 1.215 1.5 2.04 1.301 1.301 1.5 1.306 1.5.035 0-.805-.675-1.723-1.5-2.04-.825-.316-1.5-.332-1.5-.035m-57.25 43.059c.688.278 1.813.278 2.5 0 .688-.277.125-.504-1.25-.504s-1.937.227-1.25.504m-6.937 15.021c.721.289 1.584.253 1.916-.079.332-.332-.258-.568-1.312-.525-1.165.048-1.402.285-.604.604" fill-rule="evenodd"/>
</svg>