<!DOCTYPE svg PUBLIC "-//W3C//DTD SVG 1.1//EN" "http://www.w3.org/Graphics/SVG/1.1/DTD/svg11.dtd">
<svg xmlns="http://www.w3.org/2000/svg" viewBox="0 0 500 500">
<path fill="#9ef0f3" stroke="#9ef0f3" d="M246.917 116.25c-.046.138-.196 1.262-.333 2.5-.331 2.981.286 2.756-11.085 4.041-28.981 3.274-57.583 18.403-76.711 40.578-3.734 4.327-6.788 8.265-6.788 8.75 0 2.265 3.074.421 6.937-4.159 20.08-23.814 54.831-41.848 80.813-41.938 6.026-.021 6.25.069 6.25 2.509 0 1.393.647 2.78 1.438 3.084 1.548.594 14.562-6.229 14.562-7.634 0-1.365-14.695-8.897-15.083-7.731m103.33 12.225c-21.901 4.204-58.067 18.039-79.747 30.507a564.88 564.88 0 0 1-8.5 4.767c-2.475 1.357-7.929 4.687-12.12 7.4l-7.621 4.933-12.756-8.599c-13.751-9.271-15.402-9.678-15.338-3.788.023 2.093-.655 7.18-1.506 11.305-.852 4.125-1.85 9.975-2.219 13-.368 3.025-1.288 6.489-2.044 7.698-.857 1.371-1.003 2.427-.389 2.807.604.373.326 1.845-.719 3.802-.937 1.756-1.723 3.508-1.746 3.893-.063 1.049-2.542 3.336-2.542 2.345 0-.47-.787-.154-1.75.703-1.772 1.577-11.27 4.752-14.216 4.752-.967 0-2.238-1.685-3.206-4.25a653.669 653.669 0 0 0-3.759-9.647l-2.156-5.397 6.294.661c16.878 1.771 20.305 1.901 19.209.727-1.527-1.637-25.32-3.59-26.717-2.193-.755.755.014 3.898 2.634 10.766 4.099 10.742 4.17 10.438-2.833 12.195-6.893 1.73-7.278 2.357-4.705 7.653l2.195 4.517-5.263 2.407c-9.339 4.272-16.167 6.799-18.727 6.932-3.133.162-4.15 4.261-1.32 5.318 1.754.654 4.558 2.852 20.132 15.775 8.333 6.914 7.983 5.972 4.308 11.615-8.318 12.767-13.12 21.324-13.12 23.378 0 2.674 2.209 4.911 3.574 3.618.781-.74 10.837-2.472 26.523-4.569l3.596-.481.667 13.174c.762 15.052 1.376 13.797-8.183 16.735-21.486 6.607-26.548 6.667-34.771.418-4.217-3.205-4.755-2.991-4.133 1.648.615 4.584-.069 4.836-7.822 2.883-11.228-2.827-17.323-13.305-16.031-27.559.817-9.019-.236-9.294-4.121-1.074-8.849 18.721-6.785 34.56 5.383 41.32 7.102 3.946 14.718 4.985 26.443 3.61 9.847-1.156 10.307-1.123 12.446.887 1.852 1.739 2.965 1.975 6.691 1.416 4.246-.636 4.494-.539 4.969 1.947.276 1.44.132 2.846-.319 3.124-1.05.65-6.032-.53-7.662-1.814-.915-.721-1.25-.427-1.25 1.099 0 3.605 6.577 4.665 13.313 2.145 9.778-3.658 28.078-14.025 33.993-19.257 4.065-3.595.906-2.21-7.306 3.203-5.937 3.913-22.12 12.418-25.698 13.504-2.435.74-5.022-5.59-3.825-9.361.509-1.604 17.566-8.669 22.776-9.434.796-.117 2.527-.913 3.847-1.769 1.32-.857 7.295-3.948 13.278-6.87l10.878-5.313 1.827 2.407c1.514 1.992 1.578 2.462.372 2.729-2.364.526-1.66 2.177.928 2.177 2.625 0 13.738 14.362 14.998 19.383.786 3.131 5.335 3.767 6.209.867 2.548-8.454 15.937-31.786 18.023-31.407 6.751 1.228 34.989 10.481 35.663 11.685 2.125 3.798 5.861.157 3.945-3.845-1.173-2.452-3.224-17.13-3.222-23.059l.001-3.877 13.25.377 13.25.376.303-3.619c.216-2.594-.859-6.096-3.798-12.369-2.254-4.813-3.965-8.869-3.802-9.014.163-.144 2.547-1.263 5.297-2.487a1445.86 1445.86 0 0 0 11.386-5.149c3.512-1.608 6.609-2.7 6.881-2.428.273.273 1.364.031 2.425-.537 2.764-1.479 2-5.299-1.148-5.744-2.166-.305-18.044-9.745-18.044-10.727 0-1.035 32.939-33.332 33.33-32.681 1.381 2.294 4.681 15.076 5.71 22.119.894 6.114 1.57 8.136 2.719 8.136 2.653 0-.278-19.492-4.782-31.801-.972-2.656-.758-5.79.282-4.116 1.221 1.968 5.003 14.968 6.213 21.355 1.72 9.08 3.565 12.302 2.484 4.338-.882-6.501-3.674-16.784-6.156-22.67-2.075-4.923-2.51-3.816 5.489-13.974 4.739-6.018 4.773-6.112 3.23-9.095l-1.558-3.014-5.231 1.983c-2.876 1.091-5.986 2.998-6.909 4.238-4.709 6.326-4.028 6.3-7.619.297-2.655-4.44-3.088-5.885-2.237-7.475 1.081-2.021-1.968-4.454-10.219-8.155-3.856-1.73-3.954-1.245-1.381 6.871 2.722 8.584 3.079 9.032 5.476 6.862 1.765-1.597 2.028-1.415 5.506 3.824 2.009 3.026 3.653 5.953 3.653 6.505 0 2.605-13.852 18.699-30.36 35.277-5.615 5.638-6.706 6.351-7.9 5.157-.847-.847 9.944-16.413 13.499-19.47 4.915-4.229 3.55-6.517-3.634-6.091-8.943.531-14.915-.599-14.113-2.669.358-.922 1.25-3.927 1.983-6.677.733-2.75 2.253-8.285 3.379-12.3 2.029-7.238 2.03-7.316.096-9.25-2.486-2.486-4.329-2.507-3.684-.041.394 1.507-.371 2.226-3.633 3.416-18.043 6.581-24.759 8.875-25.037 8.551-1.12-1.305-7.449-27.423-6.802-28.07 1.985-1.985 21.507-3.913 28.638-2.829 7.842 1.192 18.854 4.544 22.318 6.792 1.238.804 2.25 1.011 2.25.461 0-5.869-28.529-11.032-45.939-8.315-6.46 1.009-7.552.959-8.299-.377-1.399-2.499-4.64-1.871-5.371 1.041-.526 2.095-2.646 3.526-11.269 7.612-5.842 2.768-10.143 5.217-9.558 5.442.586.226 4.063-.95 7.728-2.612 3.665-1.661 6.976-3.021 7.356-3.021.381 0-3.097 3.84-7.728 8.534-8.317 8.43-8.441 8.509-10.116 6.456-.933-1.143-2.058-2.115-2.5-2.161-2.304-.239-3.304-1.28-3.304-3.436 0-1.316-.498-2.393-1.107-2.393s-.848.675-.531 1.5c.316.825.139 1.5-.393 1.5-2.539 0-.524-3.775 3.283-6.154 27.595-17.239 88.013-42.099 80.597-33.164-1.899 2.288-.137 2.701 5.831 1.365 12.693-2.84 29.105-1.376 35.593 3.176 9.909 6.953 8.172 26.251-3.194 35.472-9.188 7.454-7.422 8.187 5.483 2.277 3.568-1.635 6.647-2.972 6.841-2.972.194 0 1.366 2.71 2.605 6.021 3.252 8.697 6.052 9.972 3.855 1.756-1.077-4.028-.994-4.792.809-7.385 11.64-16.743 12.337-38.738 1.457-45.919-8.677-5.727-24.492-7.759-38.882-4.998M224.9 130.004c-10.213 2.203-21.839 6.587-31.166 11.75-8.132 4.502-20.422 13.237-21.172 15.048-.685 1.655.45.988 7.438-4.368 4.834-3.704 14.4-9.43 22-13.167 6.197-3.047 19.21-7.156 26.271-8.295 4.251-.685 7.729-1.635 7.729-2.109 0-1.142-.984-1.041-11.1 1.141M375 140.5c1.292 1.375 2.574 2.5 2.849 2.5.275 0-.557-1.125-1.849-2.5-1.292-1.375-2.574-2.5-2.849-2.5-.275 0 .557 1.125 1.849 2.5M238.5 142c-.34.55.309 1 1.441 1 1.132 0 2.059-.45 2.059-1s-.648-1-1.441-1-1.719.45-2.059 1m5.5 0c0 .55.9 1 2 1s2-.45 2-1-.9-1-2-1-2 .45-2 1m6 0c0 .55.675 1 1.5 1s1.5-.45 1.5-1-.675-1-1.5-1-1.5.45-1.5 1m6 0c0 .55.675 1 1.5 1s1.5-.45 1.5-1-.675-1-1.5-1-1.5.45-1.5 1m-28.473.956c-.325.526-1.18.731-1.899.455-.719-.276-1.839.138-2.489.921-.947 1.142-.78 1.528.84 1.952 1.112.291 2.021.083 2.021-.461s.563-.788 1.25-.541c1.719.616 4.941-1.164 4.219-2.332-.759-1.229-3.181-1.225-3.942.006M233 143c0 .55.9 1 2 1s2-.45 2-1-.9-1-2-1-2 .45-2 1m-51.384 19.775c-2.192 4.239-2.059 4.903 1.134 5.664 1.512.361 3.633.92 4.711 1.243 1.893.566 1.9.503.223-1.798-.956-1.311-2.348-3.701-3.094-5.31l-1.357-2.925-1.617 3.126M217 164.493c0 .272-1.127 6.459-2.505 13.75-1.378 7.292-2.71 14.463-2.961 15.938-.439 2.58-.317 2.66 3.255 2.141 6.643-.965 15.211-5.511 15.211-8.07 0-2.291-1.402-3.028-2.471-1.299-.324.525-2.038 1.912-3.809 3.083-2.69 1.779-2.561 1.542.78-1.438 2.2-1.963 4.338-3.575 4.75-3.583.412-.008.75-2.04.75-4.515 0-3.333.389-4.5 1.5-4.5.933 0 1.5.944 1.5 2.5 0 1.375.505 2.5 1.122 2.5.733 0 .646.594-.25 1.711-.943 1.176-.385 1.019 1.789-.505 5.099-3.574 4.21-5.168-7.056-12.665-7.248-4.823-11.605-6.718-11.605-5.048m51.19 11.862c-5.605 5.695-10.19 10.613-10.19 10.929 0 .316 2.587 1.107 5.75 1.759 3.163.651 8.625 2.483 12.138 4.071 7.254 3.277 8.036 3.394 10.528 1.571 1.719-1.257 1.687-1.729-.737-10.75a2654.308 2654.308 0 0 1-3.646-13.685c-1.548-5.927-2.351-5.573-13.843 6.105m-19.19.538c0 1.746 2.715 3.726 3.724 2.716.679-.679-1.674-4.609-2.759-4.609-.531 0-.965.852-.965 1.893m-103.592 5.242c-10.489 16.579-18.195 41.27-18.684 59.865-.184 6.988.043 8.5 1.276 8.5 1.101 0 1.565-1.331 1.744-5 .958-19.63 4.824-33.887 14.454-53.3 4.314-8.697 5.789-12.613 5.037-13.365-.753-.753-1.874.214-3.827 3.3M235.5 180c-.34.55-.168 1 .382 1s1.278-.45 1.618-1c.34-.55.168-1-.382-1s-1.278.45-1.618 1m4.427 4.937c-3.213 2.159-4.712 2.657-5.65 1.878-.966-.802-1.277-.558-1.277 1 0 1.815.444 1.991 3.75 1.483 4.211-.647 7.704-2.177 6.871-3.011-.303-.302-.101-1.391.449-2.418 1.321-2.468 1-2.385-4.143 1.068m6.314.049c-1.797 2.877-1.663 3.014 2.933 3.014h4.175L251 185.5c-2.833-3.016-3.174-3.053-4.759-.514m68.259 2.117c-2.75 1.052-8.375 3.099-12.5 4.55-11.429 4.018-10.899 3.528-9.552 8.831 1.789 7.048 3.657 8.29 13.653 9.084 9.834.781 8.303 2.25 12.053-11.568 2.733-10.069 3.238-13.018 2.209-12.905-.474.053-3.113.956-5.863 2.008m-140.237 3.209c-5.628 3.804-3.505 5.237 2.375 1.603 1.856-1.147 3.12-2.497 2.809-3-.793-1.283-1.501-1.092-5.184 1.397m-40.87 8.213c-6.256 13.54-12.169 41.592-10.468 49.659.541 2.568.852 1.232 1.375-5.918 1.105-15.094 6.06-34.828 11.651-46.4 1.119-2.317 1.817-4.431 1.55-4.698-.266-.267-2.115 3.044-4.108 7.357M286 197.891c0 .571.94 1.542 2.089 2.157 1.79.957 2.039.856 1.739-.704-.37-1.921-3.828-3.233-3.828-1.453m-138 15.168c0 1.132.45 1.781 1 1.441.55-.34 1-1.266 1-2.059 0-.793-.45-1.441-1-1.441s-1 .927-1 2.059m152-1.236c0 .203.841 1.563 1.869 3.023 1.029 1.46 2.83 4.552 4.004 6.871 1.233 2.436 2.661 4.015 3.381 3.738 1.315-.506 4.978-11.556 4.117-12.418-.594-.593-13.371-1.753-13.371-1.214m-106.794 3.078c-5.938 1.508-6.259 1.741-5.679 4.099 1.339 5.446 6.769 4.377 10.376-2.042 1.224-2.177 2.084-3.89 1.911-3.807-.173.083-3.146.871-6.608 1.75m121.977 2.275c-1.38 5.439-1.627 5.378 5.747 1.438 6.845-3.657 6.842-4.03-.048-5.028l-4.618-.669-1.081 4.259m-168.516-.509c-.97.97-.817 3.333.216 3.333.486 0 1.119-.9 1.407-2 .514-1.966-.312-2.644-1.623-1.333m179.284 2.697c-14.705 7.585-16.454 9.717-11.102 13.528 1.628 1.16 3.385 2.108 3.905 2.108 1.025 0 12.626-16.953 12.017-17.562-.203-.203-2.372.664-4.82 1.926m-150.174-.168-3.723.99 1.993 3.907c2.317 4.54 2.284 4.533 8.267 1.886 4.437-1.962 4.538-2.106 3.529-5-1.144-3.282-3.114-3.631-10.066-1.783m61.701 12.45c-13.336 14.148-13.016 13.634-10.815 17.361 2.213 3.747 4.792 4.619 7.636 2.583 1.211-.867 3.213-2.309 4.451-3.205l2.25-1.629v14.622c0 17.332.608 18.622 8.777 18.622 8.819 0 9.223-.791 9.223-18.057 0-8.219.278-14.943.618-14.943.34 0 2.156 1.35 4.035 3s4.12 3 4.981 3c1.641 0 7.366-5.545 7.366-7.134 0-1.664-24.251-25.866-25.918-25.866-.894 0-6.566 5.241-12.604 11.646M145 224c0 1.1.45 2 1 2s1-.9 1-2-.45-2-1-2-1 .9-1 2m46.216.845c-.719.457-.997 1.562-.632 2.514.608 1.583.745 1.578 2.002-.08 2.251-2.967 1.519-4.267-1.37-2.434m-8.184 3.34c-2.458 1.055-4.635 2.085-4.839 2.288-.522.522 8.125 16.527 8.929 16.527 2.022 0 3.464-15.024 1.746-18.202l-1.368-2.531-4.468 1.918M144 229c0 1.1.45 2 1 2s1-.9 1-2-.45-2-1-2-1 .9-1 2m20 7.075a2657.397 2657.397 0 0 0-10.75 4.589c-2.093.921-1.585 1.473 11.535 12.563l12.692 10.728 2.293-3.728c6.067-9.858 6.042-9.381.988-19.048-2.495-4.774-5.149-8.783-5.897-8.911-.749-.128-5.636 1.586-10.861 3.807M143.5 234c-.816 1.32.38 3.192 1.569 2.457 1.215-.75 1.207-3.457-.01-3.457-.518 0-1.219.45-1.559 1m167.893 1.582c.334.87.607 3.12.607 5 0 4.26 1.027 4.335 3.439.252 1.859-3.147 1.856-3.176-.395-5-2.783-2.253-4.463-2.369-3.651-.252m-167.862 3.711c-.428.986-.497 2.074-.155 2.417 1.016 1.015 1.835-.411 1.367-2.382-.414-1.747-.468-1.748-1.212-.035M356.5 239c-.399.646-.276 1.624.274 2.174.667.667 1.242.609 1.726-.174.399-.646.276-1.624-.274-2.174-.667-.667-1.242-.609-1.726.174m-38.885 2.465c-.888 1.355-1.615 2.726-1.615 3.047 0 1.18 4.938-3.056 4.969-4.262.051-2.036-1.621-1.43-3.354 1.215m-174.05 2.737c-.408.936-.439 2.193-.068 2.794.372.6.148 1.727-.497 2.504-.653.787-.818 1.985-.373 2.705.439.711.815 2.154.836 3.206.02 1.053.6 2.103 1.287 2.335 1.442.485 1.607-4.854.346-11.246-.585-2.965-.981-3.56-1.531-2.298m212.664-.014c.618 1.854 2.771 2.161 2.771.395 0-.87-.712-1.583-1.583-1.583s-1.406.534-1.188 1.188m-32.545 5.906c-4.373 3.897-5.442 5.397-4.787 6.712.463.932 1.792 3.824 2.952 6.427 2.001 4.492 2.245 4.682 4.77 3.722 6.283-2.389 20.381-9.309 20.381-10.004 0-.597-10.599-7.78-16.593-11.243-.601-.348-3.627 1.626-6.723 4.386m32.826-2.11c-.737 1.193.199 3.016 1.549 3.016 1.217 0 1.225-2.707.01-3.457-.512-.317-1.213-.118-1.559.441m.015 4.976c-.848 1.372-.097 2.402 1.38 1.894.606-.208.683-.914.188-1.711-.625-1.006-1.03-1.053-1.568-.183M372 259.593c0 46.048-35.5 94.227-81.354 110.412-19.361 6.833-27.646 8.171-27.646 4.464 0-4.036-2.517-3.957-9.234.291-7.765 4.909-7.802 6.025-.296 8.932 9.891 3.831 9.53 3.816 9.53.421 0-2.71.388-3.09 3.75-3.675 31.024-5.403 60.257-22.079 79.773-45.509 16.512-19.822 27.1-46.502 29.041-73.179.693-9.513.658-9.75-1.427-9.75-1.995 0-2.137.504-2.137 7.593m5.202 4.835c-1.567 16.624-4.898 29.165-11.666 43.916-2.999 6.538-2.769 8.999.281 3.003 7.077-13.91 10.567-26.084 12.714-44.341 1.71-14.542 1.73-15.006.656-15.006-.448 0-1.341 5.592-1.985 12.428m-191.926-8.174c-1.136 1.235-2.977 3.768-4.091 5.628l-2.024 3.383 2.9 2.439c6.164 5.188 8.47 2.1 6.736-9.02-.768-4.928-1.047-5.12-3.521-2.43m128.63 2.078c-.875.642-2.172 3.643-2.881 6.668-.709 3.025-1.696 6.288-2.192 7.25-1.147 2.222-.77 2.199 6.314-.384 3.219-1.174 5.853-2.733 5.853-3.465 0-.975-3.734-8.646-5.388-11.069-.063-.093-.831.357-1.706 1M170.5 279.733c-7.988 13.314-8.812 15.607-5.324 14.814 1.278-.29 6.149-1 10.824-1.577 4.675-.578 10.681-1.325 13.346-1.661l4.847-.61-.674-5.6c-.844-7.025-2.954-8.891-10.519-9.301-5.712-.309-8.069-2.933-3.25-3.618 2.762-.392 2.899-1.762.316-3.145-1.064-.569-2.077-1.02-2.25-1.002-.174.017-3.466 5.283-7.316 11.7m19.5-7.701c-1.333.86-1.333 1.076 0 1.936.967.624 1.618.624 1.833 0 .661-1.919-.295-2.928-1.833-1.936m124.244 2.715c-9.187 3.84-9.965 4.959-8.81 12.661.802 5.347 1.387 5.56 15.316 5.578 11.906.016 11.496.624 7.084-10.486-4.877-12.281-3.981-11.769-13.59-7.753m-.101 7.368c-7.38 9.121-6.811 12.193.959 5.174 4.576-4.134 6.353-7.653 5.046-9.989-.686-1.225-1.915-.24-6.005 4.815m38.524-5.448c-1.218 1.218-.689 3.333.833 3.333.833 0 1.5-.889 1.5-2 0-1.992-1.066-2.601-2.333-1.333M195.37 283.25c.331 1.238.609 3.262.616 4.5.011 1.73.592 2.25 2.514 2.25 3.125 0 3.121-.622-.036-5.268-2.883-4.242-3.974-4.765-3.094-1.482m155.63.809c0 1.132.45 1.781 1 1.441.55-.34 1-1.266 1-2.059 0-.793-.45-1.441-1-1.441s-1 .927-1 2.059m-50.871 3.759c-1.291 1.814-2.061 3.584-1.71 3.934 1.093 1.093 4.795-3.404 4.417-5.366-.301-1.56-.742-1.327-2.707 1.432M318.5 289c-.995 1.1-1.398 2-.896 2 .503 0 1.477-.9 2.164-2s1.09-2 .895-2c-.194 0-1.168.9-2.163 2m30.5-.5c0 2.267-.239 2.881-1.679 4.321-1.531 1.532-1.736 3.179-.394 3.179 1.067 0 4.073-5.649 4.073-7.654 0-.74-.45-1.346-1-1.346s-1 .675-1 1.5m-152.34 4.173c-.569.569.214 25.318.825 26.09.595.752 23.515-9.79 23.515-10.816 0-.862-2.066-2.772-11.22-10.37-6.369-5.286-11.005-7.019-13.12-4.904m97.007 1.994c-1.241 1.24-.677 3.274.756 2.724 1.904-.73 2.855-3.391 1.212-3.391-.716 0-1.602.3-1.968.667m3 2.61c-2.809 2.248-2.82 2.302-1.309 6.245.838 2.188 2.295 6.828 3.238 10.312 1.357 5.011 2.233 6.531 4.198 7.278 3.202 1.217 3.039 2.349 1.856-12.862-1.151-14.795-1.908-15.835-7.983-10.973m47.792.79c-.363.586-.419 1.306-.126 1.6.717.716 2.667-.546 2.667-1.726 0-1.278-1.726-1.193-2.541.126m-58.238 3.585c-5.231 4.002-5.198 3.625-.756 8.573 2.526 2.814 3.327 4.383 2.607 5.103-.721.721.108 1.441 2.694 2.341 6.892 2.401 7.461 1.319 3.778-7.169-.716-1.65-1.919-5.052-2.673-7.56l-1.371-4.56-4.279 3.272m55.683.963c-1.16 1.398-1.086 1.566.545 1.25 1.037-.201 2.073-.927 2.301-1.615.594-1.784-1.26-1.546-2.846.365m-2.559 3.928c-.81 2.11.542 3.25 1.694 1.428 1.224-1.936 1.2-2.971-.07-2.971-.568 0-1.298.694-1.624 1.543m-66.616 2.379-3.771 1.761 5.271 1.762c12.667 4.237 13.026 4.096 6.884-2.695-2.861-3.163-3.29-3.206-8.384-.828m62.922 2.546c-.892 2.324 1.13 2.809 2.334.56.855-1.597.782-2.028-.343-2.028-.785 0-1.682.661-1.991 1.468m-102.384 2.697c-3.186 1.97-3.211 2.044-1.683 4.998 1.027 1.984 2.063 2.803 3.065 2.418.833-.32 2.054-.581 2.714-.581.66 0 3.885-1.68 7.168-3.733l5.968-3.733-4-.709c-6.408-1.137-9.779-.795-13.232 1.34m24.588.822c-.821 2.353-1.922 3.212-5.198 4.05-2.286.585-7.193 1.978-10.903 3.096l-6.745 2.031 5.228 7.489c8.742 12.52 8.339 12.633 17.641-4.991 8.259-15.649 7.985-14.662 4.07-14.662-2.489 0-3.244.551-4.093 2.987m-7.105.585c-1.512.821-2.75 1.646-2.75 1.834 0 .94 6.407-1.128 6.759-2.182.53-1.592-.616-1.493-4.009.348m78.408 3.309c-1.12.71-1.121 1.205-.01 2.985 1.316 2.107 2.839 2.842 2.866 1.384.007-.413.285-1.762.616-3 .638-2.379-.913-2.99-3.472-1.369M320 323.475c0 2.667.345 3.33 1.5 2.887.825-.317 1.5-1.203 1.5-1.969 0-1.732 1.675-1.837 2.28-.143.245.688.786.934 1.202.548 1.01-.939-2.279-4.144-4.62-4.501-1.512-.231-1.862.366-1.862 3.178M201 325c-3.025 1.598-5.218 2.927-4.874 2.953 1.035.078 11.874-4.888 11.874-5.44 0-.954-1.484-.427-7 2.487m-9 4c-.901.582-1.025.975-.309.985.655.008 1.469-.435 1.809-.985.767-1.242.421-1.242-1.5 0m120.459 1.067c-1.089 1.762.059 2.009 2.114.454 1.692-1.28 1.721-1.461.236-1.489-.93-.018-1.988.448-2.35 1.035M330 342.648c-10.17 9.905-29.67 20.788-47 26.228a2226.232 2226.232 0 0 0-11.5 3.632c-3.59 1.201 4.775.179 9.346-1.142 19.242-5.56 49.481-22.954 52.605-30.259 1.014-2.369.183-1.999-3.451 1.541m-180.187-1.965c.721.289 1.584.253 1.916-.079.332-.332-.258-.568-1.312-.525-1.165.048-1.402.285-.604.604M295 348.976c0 1.178-.419 1.883-.931 1.567-.512-.317-1.231-.091-1.597.502-.366.593-1.748 1.489-3.069 1.992-1.322.502-2.403 1.375-2.403 1.938 0 1.357 3.699 1.322 4.542-.043.363-.588 1.253-.841 1.976-.563.724.277 1.576-.17 1.892-.996.317-.825 1.064-1.198 1.66-.83.703.435.969-.305.757-2.109-.392-3.329-2.827-4.585-2.827-1.458M282 357c0 .55.9 1 2 1s2-.45 2-1-.9-1-2-1-2 .45-2 1m-5 2.406c0 .914.7 1.224 2 .884 1.1-.288 2-.921 2-1.407 0-.485-.9-.883-2-.883s-2 .633-2 1.406M271.5 361c-.34.55.282 1 1.382 1 1.1 0 2.278-.45 2.618-1 .34-.55-.282-1-1.382-1-1.1 0-2.278.45-2.618 1m-6.5 2c0 .55.873 1 1.941 1s2.219-.45 2.559-1c.351-.567-.49-1-1.941-1-1.407 0-2.559.45-2.559 1m-4.333.667c-1.311 1.311-.633 2.137 1.333 1.623 1.1-.288 2-.921 2-1.407 0-1.033-2.363-1.186-3.333-.216M254.5 365c-.34.55.309 1 1.441 1 1.132 0 2.059-.45 2.059-1s-.648-1-1.441-1-1.719.45-2.059 1m-5.5 1c0 .55.927 1 2.059 1 1.132 0 1.781-.45 1.441-1-.34-.55-1.266-1-2.059-1-.793 0-1.441.45-1.441 1m-21 1c0 .55.45 1 1 1s1-.45 1-1-.45-1-1-1-1 .45-1 1m3.5 0c.34.55 1.491 1 2.559 1s1.941-.45 1.941-1-1.152-1-2.559-1c-1.451 0-2.292.433-1.941 1m5.5 0c0 .55.9 1 2 1s2-.45 2-1-.9-1-2-1-2 .45-2 1m6 0c0 .55.9 1 2 1s2-.45 2-1-.9-1-2-1-2 .45-2 1" fill-rule="evenodd"/>
<path fill="#fbfbfb" stroke="#fbfbfb" d="M247 118.796c0 2.795-.002 2.796-10.25 4.087-27.523 3.467-51.729 14.914-70.574 33.373-9.2 9.01-5.785 8.24 5.047-1.139 20.347-17.618 42.781-27.306 68.527-29.594l7.25-.644v3.56c0 1.959.338 3.524.75 3.48 2.369-.257 12.75-6.705 12.75-7.919 0-1.214-10.381-7.662-12.75-7.919-.412-.044-.75 1.177-.75 2.715m107 9.886c-4.506.738-17 3.513-17 3.775 0 .141 5.288.049 11.75-.205 10.442-.41 12.418-.21 17.75 1.797 6.664 2.508 13.5 8.5 13.5 11.833 0 3.023-1.291 2.616-2.846-.896-1.671-3.775-8.183-8.19-14.418-9.775-5.501-1.398-14.736-1.617-14.736-.349 0 .475 1.127.739 2.505.588 1.378-.151 2.251.136 1.941.638-.31.501-1.325.961-2.255 1.022-.93.06 2.49.935 7.6 1.944 15.358 3.032 20.199 7.5 20.205 18.649.002 3.412-.397 7.237-.887 8.5-3.309 8.534-4.704 10.627-9.765 14.648-7.878 6.259-6.126 6.265 7.525.024 4.48-2.048 7.084-1.923 7.192.344.034.704 1.152 3.531 2.485 6.281l2.424 5-.563-5.136c-.446-4.067-.112-6.022 1.604-9.386 1.275-2.499 1.771-4.502 1.204-4.864-.53-.338-1.282-2.08-1.671-3.872-.388-1.792-1.565-3.718-2.615-4.28-8.775-4.696-3.998-18.204 6.958-19.674 3.393-.455 3.744-.767 3.324-2.964-.54-2.825-6.304-9.324-8.27-9.324-.809 0-.569.555.618 1.429 1.916 1.41 1.916 1.436-.059 2.073-1.1.354-2.738 1.034-3.641 1.511-1.306.691-1.538.474-1.136-1.062.277-1.06.903-1.682 1.391-1.381.487.302.886.164.886-.304 0-.469-1.913-1.588-4.25-2.486-4.106-1.577-4.148-1.637-1.25-1.77 2.895-.132 2.918-.17.658-1.075-1.289-.517-2.72-.706-3.181-.421-.461.285-1.121.061-1.467-.498-.602-.974-16.129-1.216-21.51-.334m-122.25.98c.688.278 1.813.278 2.5 0 .688-.277.125-.504-1.25-.504s-1.937.227-1.25.504m-8.75 1.384c-1.095.741-.691.834 1.5.344 3.677-.823 4.475-1.395 1.917-1.375-1.054.009-2.592.472-3.417 1.031M215 133c-1.828 1.181-.249 1.181 2.5 0 1.319-.567 1.489-.878.5-.914-.825-.031-2.175.381-3 .914m113.25 1.8c-2.887.901-5.25 1.99-5.25 2.419 0 1.118 1.134.96 4.058-.566 1.406-.734 3.499-1.191 4.651-1.015 1.164.177 2.345-.337 2.661-1.159.679-1.769.561-1.763-6.12.321m45.75-.633c0 .458.477.833 1.059.833s.781.45.441 1-.141 1 .441 1 1.059-.825 1.059-1.833c0-1.009-.675-1.834-1.5-1.834s-1.5.375-1.5.834m-169.5 2.894c-6.276 3.099-5.405 3.018 3-.277 5.504-2.158 6.556-2.809 4.417-2.735-.78.027-4.117 1.383-7.417 3.012m174.313-2.378c.721.289 1.584.253 1.916-.079.332-.332-.258-.568-1.312-.525-1.165.048-1.402.285-.604.604m-46.734 4.9c.048 1.165.285 1.402.604.605.289-.722.253-1.585-.079-1.917-.332-.332-.568.258-.525 1.312m4.671-.867c-1.512.229-2.75.776-2.75 1.214 0 .438 2.137.432 4.75-.015 2.613-.446 5.875-.999 7.25-1.227 1.375-.229.475-.409-2-.402-2.475.008-5.738.201-7.25.43m-23.25 1.26c-4.156 1.068-8.5 2.866-8.5 3.518 0 .613 4.964-.442 6.5-1.382.55-.337 2.575-1.127 4.5-1.757 3.937-1.288 2.112-1.565-2.5-.379m-118.75 1.596c-3.738 2.028-3.511 2.873.25.928 1.65-.853 3-1.765 3-2.026 0-.643-.107-.607-3.25 1.098M245 142c0 .55.45 1 1 1s1-.45 1-1-.45-1-1-1-1 .45-1 1m-12 1c0 .55.675 1 1.5 1s1.5-.45 1.5-1-.675-1-1.5-1-1.5.45-1.5 1m6.813-.317c.721.289 1.584.253 1.916-.079.332-.332-.258-.568-1.312-.525-1.165.048-1.402.285-.604.604m17 0c.721.289 1.584.253 1.916-.079.332-.332-.258-.568-1.312-.525-1.165.048-1.402.285-.604.604m-33.174 1.011c-1.126 1.126-.685 2.306.861 2.306.825 0 1.5-.423 1.5-.941 0-1.261-1.562-2.164-2.361-1.365M228 144c0 .55.423 1 .941 1s1.219-.45 1.559-1c.34-.55-.084-1-.941-1s-1.559.45-1.559 1m-39.559 1.555c-1.864 1.494-1.852 1.512.309.465 1.238-.6 2.25-1.3 2.25-1.555 0-.765-.519-.544-2.559 1.09M184 148c-.901.582-1.025.975-.309.985.655.008 1.469-.435 1.809-.985.767-1.242.421-1.242-1.5 0m-5.694 4.573-2.806 2.573 3.25-2.261c1.787-1.244 3.25-2.401 3.25-2.573 0-.789-1.106-.112-3.694 2.261M395 156.059c0 .582-.399.812-.887.511-1.725-1.066-2.898 1.964-2.257 5.832.512 3.092.877 3.611 1.759 2.5 1.166-1.47 2.782-9.902 1.897-9.902-.282 0-.512.477-.512 1.059m-179.895 4.314c-.627.756-.894 2.014-.593 2.797.3.783-.104 4.552-.898 8.377-1.833 8.824-2.963 19.688-1.764 16.953.482-1.1 1.677-6.725 2.655-12.5 2.484-14.661 2.274-14.564 14.25-6.566 5.48 3.66 10.842 7.474 11.917 8.475 3.178 2.961 6.336 4.406 6.287 2.876-.023-.707-6.535-5.56-14.471-10.785-7.937-5.225-14.443-9.838-14.459-10.25-.047-1.212-1.692-.861-2.924.623m62.715 1.803c-.206 1.398-1.93 3.026-4.82 4.549-2.475 1.304-3.375 2.079-2 1.721 1.904-.496.473 1.453-6 8.171-4.675 4.853-8.589 9-8.697 9.217-.109.217-1.796-.594-3.75-1.801-4.079-2.521-4.765-1.774-1.053 1.146 3.505 2.757 3.138 3.386-1.75 2.999-2.338-.185-7.062.314-10.5 1.109l-6.25 1.445-.185-4.616c-.101-2.539-.231-5.709-.288-7.046-.057-1.336-.714-2.632-1.459-2.881-1.086-.362-1.255.952-.851 6.596.277 3.877.229 7.423-.106 7.882-1.302 1.777-12.32 6.335-15.383 6.363-2.756.026-2.962.186-1.408 1.089 1.759 1.024 1.759 1.104 0 2.438-2.96 2.243-3.531 1.684-2.866-2.807.527-3.556.435-3.934-.567-2.312-.658 1.065-1.359 3.744-1.558 5.953-.605 6.719-5.026 9.531-20.415 12.985-2.548.571-4.802-3.759-9.499-18.246-.437-1.347 14.951-.945 21.335.557 1.299.306 2.25.061 2.25-.579 0-.609-1.012-1.12-2.25-1.135-1.238-.015-6.525-.443-11.75-.952-12.704-1.237-12.848-1.058-8.462 10.479 4.379 11.518 4.479 11.011-2.479 12.487-7.089 1.505-7.618 2.431-4.512 7.898l2.372 4.176-5.71 2.554c-9.52 4.26-15.555 6.617-18.703 7.308-3.915.858-4.508 3.746-1.04 5.064 1.436.546 8.174 5.677 14.973 11.402l12.361 10.41-2.021 3.351c-1.111 1.842-2.416 3.5-2.9 3.683-.483.184-.879.838-.879 1.455 0 .617-2.52 5.096-5.599 9.954-5.791 9.134-6.965 15.078-2.609 13.206.939-.404 4.183-1.076 7.208-1.492 14.815-2.042 23.278-3.011 23.588-2.702.187.188.647 6.443 1.021 13.9l.681 13.557-2.395.549c-1.317.302-5.545 1.502-9.395 2.667-19.501 5.9-23.846 5.982-30.923.58L148 321.013v3.994c0 3.808-.145 3.993-3.134 3.993-14.111 0-22.711-10.927-21.647-27.504.575-8.959-.098-9.307-3.712-1.921-10.328 21.11-5.818 38.038 11.482 43.1 4.34 1.27 8.187 1.486 18.381 1.032 11.799-.524 13.119-.405 15.571 1.408 2.196 1.623 3.176 1.791 5.434.933 3.966-1.508 4.178-1.411 5.364 2.452 1.053 3.431 1.018 3.5-1.768 3.5-1.562 0-3.995-.439-5.406-.975-3.158-1.201-3.487.411-.419 2.053 3.565 1.908 9.886.472 19.873-4.513 5.215-2.603 9.931-5.177 10.481-5.72.55-.544-2.775.831-7.388 3.055-4.614 2.224-8.626 4.281-8.917 4.571-2.876 2.877-6.151-.684-6.181-6.721-.01-1.895-.532-2.75-1.681-2.75-.916 0-1.413-.253-1.103-.563.694-.695 22.325-8.364 25.77-9.137 1.375-.309 3.175-1.11 4-1.781 1.123-.914 17.916-9.475 24.186-12.331.378-.172 1.478.895 2.445 2.371 1.692 2.583 1.685 2.74-.187 4.181-1.864 1.436-1.841 1.475.556.954 2.216-.481 3.204.449 8.7 8.186 3.41 4.8 6.662 9.941 7.225 11.424.989 2.599 5.075 3.965 5.075 1.696 0-2.046.237-2.629 3.449-8.5 1.805-3.3 5.431-10.05 8.057-15 2.626-4.95 4.926-9.177 5.111-9.393.185-.216 5.859 1.29 12.609 3.347 6.751 2.058 14.749 4.442 17.774 5.299 3.025.857 6.445 2.403 7.6 3.436 1.843 1.648 2.251 1.695 3.336.388 1.765-2.126.456-3.575-3.245-3.592-4.651-.023-4.974-.477-8.528-11.985-1.783-5.775-3.639-11.226-4.125-12.113-1.463-2.67 1.307-4.453 6.299-4.056l4.39.349.669 8.16c1.122 13.688 1.865 18.855 2.553 17.742.361-.584.319-4.104-.095-7.822-1.505-13.536-1.147-18.246 1.396-18.366 2.055-.098 2.008-.202-.541-1.208-2.705-1.067-2.782-1.301-2.5-7.643l.291-6.543 6.873-3.284c10.56-5.044 10.457-5.078 14.686 4.784 2.004 4.675 3.95 9.759 4.324 11.298l.679 2.798-10.185-.702c-6.755-.465-9.975-.362-9.563.306.343.553 4.097 1.098 8.343 1.211 4.246.112 8.105.442 8.575.733 1.444.892 3.768-1.753 3.768-4.288 0-1.32-1.813-6.288-4.029-11.04-2.216-4.752-3.898-9.036-3.736-9.52.429-1.288 19.668-9.937 23.765-10.685 3.564-.65 5.848-4.914 2.82-5.263-.726-.084-1.786-.205-2.355-.268-.569-.064-4.978-2.613-9.799-5.665l-8.764-5.549 9.202-8.933c10.257-9.958 19.65-19.645 22.721-23.433 1.61-1.986 2.141-2.192 2.584-1 3.733 10.04 6.589 22.067 6.59 27.75.001 2.311.463 3.25 1.599 3.25 2.735 0-.39-19.116-5.102-31.205-1.141-2.928-1.187-3.981-.22-5.024 2.713-2.925 9.493-11.441 11.195-14.062 1.843-2.838.98-7.709-1.367-7.709-3.152 0-10.283 4.306-12.309 7.433-2.769 4.274-3.274 4.351-5.415.817a140.771 140.771 0 0 0-3.597-5.559c-1.498-2.18-1.67-3.122-.77-4.206 1.557-1.877.637-3.096-4.331-5.738-7.662-4.075-7.99-4.121-7.229-1.006 2.991 12.242 3.617 13.506 5.738 11.586 2.268-2.053 4.165-.377 8.697 7.688l2.121 3.774-6.648 8.234c-11.508 14.254-30.624 33.17-32.361 32.024-1.07-.707-1.214-1.404-.5-2.434.55-.794 3.669-5.307 6.93-10.028 3.262-4.722 6.476-8.585 7.143-8.585 1.907 0 2.425-2.623.919-4.653-1.108-1.494-1.728-1.629-3.242-.707-1.866 1.137-14.48.463-15.786-.842-.333-.334.334-3.912 1.482-7.952 1.149-4.04 2.817-9.9 3.707-13.021 1.785-6.258 1.476-8.15-1.597-9.795-1.636-.876-2.056-.804-2.056.351 0 .799.51 1.622 1.133 1.83.622.207-5.115 2.665-12.75 5.462-7.636 2.796-14.558 5.367-15.383 5.712-1.2.502-2.327-2.292-5.628-13.95l-4.128-14.577 2.219-.844c1.221-.464 4.429-1.178 7.128-1.587 2.7-.409 4.347-.935 3.66-1.169-.687-.233-3.587.077-6.443.69-4.411.946-5.323.883-6.051-.417-1.302-2.327-4.564-1.9-4.937.645m22.43-1.448c2.063.216 5.438.216 7.5 0 2.063-.215.375-.392-3.75-.392s-5.812.177-3.75.392m14.563.955c.721.289 1.584.253 1.916-.079.332-.332-.258-.568-1.312-.525-1.165.048-1.402.285-.604.604m12 3c.721.289 1.584.253 1.916-.079.332-.332-.258-.568-1.312-.525-1.165.048-1.402.285-.604.604m-58.408 10.792c-5.448 5.761-9.905 11.015-9.905 11.676 0 .661 3.236 1.998 7.191 2.97 3.955.972 9.282 2.88 11.837 4.241 8.036 4.278 12.131 1.301 9.576-6.963-1.336-4.318-3.866-13.329-5.096-18.149-1.527-5.979-2.471-5.547-13.603 6.225m66.328-7.351c.679.684 1.486.991 1.793.683.308-.308-.247-.867-1.233-1.243-1.425-.542-1.54-.428-.56.56M250 177.382c0 .825.45 1.778 1 2.118.55.34 1-.057 1-.882s-.45-1.778-1-2.118c-.55-.34-1 .057-1 .882m-104.254 4.883c-9.052 13.814-15.475 32.919-18.235 54.235-1.786 13.79-1.783 13.5-.142 13.5 1.482 0 2.602-4.913 2.62-11.5.032-11.407 5.785-30.842 13.718-46.341 2.911-5.688 5.293-10.75 5.293-11.25 0-1.667-1.752-.937-3.254 1.356m92.53-.493c-1.411 1.096-1.931 2.195-1.423 3.006.577.922 1.129.557 1.978-1.306.704-1.546 1.64-2.299 2.328-1.874.711.44.878.27.436-.443-.875-1.418-.644-1.461-3.319.617m6.391 1.895c-.367.366-.653 1.379-.637 2.25.025 1.3.221 1.257 1.092-.242 1.077-1.852.765-3.228-.455-2.008M317 185.98c-5.507 1.781-25.303 8.99-25.656 9.343-.912.911 2.175 10.836 3.837 12.341 2.237 2.025 18.912 3.708 19.993 2.018.586-.916 3.406-11.268 5.838-21.432.834-3.488.442-3.71-4.012-2.27m-142.75 5.009c-3.441 2.098-4.051 3.014-2 3.006 1.501-.006 7.685-4.909 6.25-4.955-.55-.018-2.463.859-4.25 1.949m65.529 3.897c-8.137 1.726-16.051 5.685-21.626 10.819-3.109 2.863-5.146 5.225-4.525 5.25.62.025 1.687-.63 2.372-1.455.685-.825 1.977-1.507 2.872-1.515 1.417-.014 1.433-.142.128-.985-.825-.533-1.176-.976-.779-.985 1.213-.025 9.779 6.313 9.779 7.237 0 .476.414.61.919.298.506-.313 1.599.111 2.429.941.83.83 2.216 1.509 3.081 1.509.864 0 1.571.45 1.571 1s.93 1 2.066 1c1.136 0 2.936.466 4 1.035 2.404 1.287 2.475.65.184-1.644-1.667-1.67-1.631-1.716.75-.975 1.375.428 3.293.831 4.262.895 2.374.158 2.048.744-3.83 6.89-19.28 20.159-20.629 22.387-16.118 26.625 3.064 2.878 6.794 2.752 9.686-.326 3.762-4.005 4-3.273 4 12.3 0 17.379-.095 17.2 9.078 17.2 8.737 0 8.718.035 9.641-17.329l.781-14.7 2.706 2.514c3.78 3.512 8.059 3.356 10.726-.389 3.177-4.462 2.866-5.047-9.682-18.151-6.708-7.005-11.214-12.451-10.5-12.691.688-.232 1.25-1.148 1.25-2.037 0-1.258.267-1.35 1.2-.417 1.447 1.447 4.173 1.613 3.3.2-.37-.598.875-1 3.097-1 2.514 0 4.876-.889 7.309-2.75 3.913-2.994 14.094-5.723 14.094-3.777 0 .61 1.59 1.831 3.534 2.712 3.19 1.446 3.409 1.448 2.25.024-4.432-5.446-6.702-7.378-7.843-6.673-.793.491-.998.365-.56-.344.942-1.523-5.513-5.648-12.882-8.233-6.569-2.303-22.284-3.438-28.72-2.073M286 197.002c-1.252.81-1.005 1.371 1.5 3.395 3.56 2.876 3.659 2.843 2.662-.882-.87-3.256-1.978-3.925-4.162-2.513m-153.541 4.065c-.363.586-.445 1.281-.183 1.543s.743-.218 1.069-1.067c.676-1.762.1-2.072-.886-.476m-1.835 4.472c-.343.893-.595 2.15-.561 2.793.035.642.495.09 1.022-1.227.527-1.318.779-2.574.56-2.793-.219-.219-.679.333-1.021 1.227m-2.053 7.032c-.367 1.466-.475 2.858-.24 3.094.236.235.73-.771 1.098-2.236.367-1.466.475-2.858.24-3.094-.236-.235-.73.771-1.098 2.236m172.278 1.513c1.241 1.879 3.222 5.328 4.403 7.666 1.18 2.338 2.755 4.25 3.498 4.25 1.519 0 4.162-5.681 4.975-10.694l.537-3.306h-4.506c-2.478 0-6.004-.3-7.834-.666l-3.328-.665 2.255 3.415M372.031 212c0 .825.436 2.175.969 3 .862 1.333.969 1.333.969 0 0-.825-.436-2.175-.969-3-.862-1.333-.969-1.333-.969 0M192.5 214.694c-7.341 1.897-6.816 1.306-5.008 5.634l1.519 3.634 3.479-1.659c3.577-1.705 9.612-9.364 7.274-9.231-.695.04-3.964.77-7.264 1.622m122.228 3.056c-.764 2.613-1.301 4.877-1.193 5.031.107.155 3.743-1.64 8.08-3.988l7.885-4.271-4.5-.687c-8.651-1.32-8.753-1.282-10.272 3.915m-167.649-.167c.048 1.165.285 1.402.604.605.289-.722.253-1.585-.079-1.917-.332-.332-.568.258-.525 1.312m174.715 3.669c-10.98 5.832-12.422 7.898-8.04 11.516 1.51 1.247 3.62 2.147 4.687 2 1.89-.261 14.45-17.21 13.476-18.184-.254-.255-4.81 1.846-10.123 4.668m-195.223-1.681c-.367 1.466-.475 2.858-.24 3.094.236.235.73-.771 1.098-2.236.367-1.466.475-2.858.24-3.094-.236-.235-.73.771-1.098 2.236m51.094-1.064c-6.254 1.719-6.28 1.761-3.698 5.94 2.485 4.021 3.247 4.192 8.661 1.948 4.976-2.063 4.761-1.678 3.263-5.82-1.43-3.955-1.392-3.945-8.226-2.068M251 218c-.825.533-1.05.969-.5.969s1.675-.436 2.5-.969c.825-.533 1.05-.969.5-.969s-1.675.436-2.5.969m123.61 2.5c.823 3.677 1.395 4.475 1.375 1.917-.009-1.054-.472-2.592-1.031-3.417-.741-1.095-.834-.691-.344 1.5m-229.027 2.366c-.431.697-.513 1.537-.183 1.867.895.895 1.871-.421 1.387-1.871-.338-1.016-.574-1.016-1.204.004m44.802 2.573c-.304.792-.096 2.254.461 3.25.916 1.636 1.117 1.54 2.084-1.004 1.371-3.606 1.361-3.685-.461-3.685-.843 0-1.78.648-2.084 1.439m-8.113 2.751-5.227 2.061 4.102 7.624c5.307 9.863 6.563 11.255 7.249 8.031 2.494-11.721 2.585-13.016 1.153-16.444-.796-1.904-1.582-3.433-1.748-3.397-.166.036-2.653.992-5.529 2.125m-37.621.278c-.31.807-.133 1.734.393 2.059.526.325.956-.336.956-1.468 0-2.415-.556-2.658-1.349-.591m-20.456 4.032c.02 1.65.244 2.204.498 1.231.254-.973.237-2.323-.037-3-.274-.677-.481.119-.461 1.769m252.884-.917c.048 1.165.285 1.402.604.605.289-.722.253-1.585-.079-1.917-.332-.332-.568.258-.525 1.312M168.5 233.685c-11.505 4.795-16.5 7.295-16.5 8.257 0 .532 4.387 4.631 9.75 9.109a8467.761 8467.761 0 0 1 11.792 9.857c3.797 3.192 4.25 3.164 6.454-.402 1.192-1.928 2.586-3.506 3.098-3.506s-.259 1.885-1.713 4.188l-2.644 4.189 2.687 2.311c2.982 2.565 8.336 3.1 9.174.917.295-.768.039-3.239-.568-5.492-.606-2.253-1.153-6.238-1.215-8.855-.061-2.617-.338-4.104-.615-3.304-.277.8-1.335 2.348-2.351 3.439-1.841 1.976-1.849 1.976-1.849-.121 0-1.158.518-2.278 1.152-2.489 1.234-.412-8.144-20.02-9.753-20.391-.495-.114-3.599.917-6.899 2.293m-24.421.898c.048 1.165.285 1.402.604.605.289-.722.253-1.585-.079-1.917-.332-.332-.568.258-.525 1.312m166.429.667c.301 1.238.882 4.261 1.292 6.719l.745 4.468 2.461-3.968c1.354-2.183 2.603-4.257 2.775-4.609.31-.635-5.921-4.86-7.168-4.86-.358 0-.405 1.012-.105 2.25M123.32 244c0 3.575.182 5.037.403 3.25.222-1.787.222-4.713 0-6.5-.221-1.787-.403-.325-.403 3.25m20.759-3.417c.048 1.165.285 1.402.604.605.289-.722.253-1.585-.079-1.917-.332-.332-.568.258-.525 1.312m172.88 1.475c-1.197 1.681-1.898 3.336-1.558 3.677.854.853 6.655-4.836 6.004-5.888-.947-1.533-2.238-.891-4.446 2.211m40.12 2.525c.048 1.165.285 1.402.604.605.289-.722.253-1.585-.079-1.917-.332-.332-.568.258-.525 1.312m-213 1c.048 1.165.285 1.402.604.605.289-.722.253-1.585-.079-1.917-.332-.332-.568.258-.525 1.312m178.421 4.901c-3.3 3.007-5.437 5.478-4.75 5.492.688.013 1.25.687 1.25 1.497 0 4.144 4.432 10.635 6.848 10.029 5.011-1.258 21.15-9.424 21.116-10.684-.036-1.314-14.113-10.828-16.964-11.465-.825-.185-4.2 2.124-7.5 5.131m34.579-.901c.048 1.165.285 1.402.604.605.289-.722.253-1.585-.079-1.917-.332-.332-.568.258-.525 1.312m-213.902.97c.452 2.172 2.227 2.305 2.633.197.21-1.095-.28-1.75-1.31-1.75-.961 0-1.512.647-1.323 1.553m229.403 9.197c-3.541 46.432-28.729 84.908-68.676 104.905-10.203 5.108-26.8 10.743-34.904 11.85-3.025.413-5.725.806-6 .873-.275.067-.546-1.124-.601-2.646-.056-1.522-.359-3.025-.674-3.34-.691-.691-14.725 7.511-14.725 8.606 0 .75 13.176 6.002 15.057 6.002.519 0 .943-1.35.943-3 0-2.606.361-3 2.75-3.001 3.596-.001 19.996-4.515 28.25-7.776 44.656-17.642 74.553-56.511 80.516-104.68 1.826-14.749 1.83-15.543.069-15.543-1.047 0-1.568 2.014-2.005 7.75M144 255.5c0 .825.45 1.5 1 1.5s1-.675 1-1.5-.45-1.5-1-1.5-1 .675-1 1.5m234.3 4.5c0 3.025.187 4.262.416 2.75.229-1.512.229-3.988 0-5.5s-.416-.275-.416 2.75m-65.707-.83c-.876 1.251-1.593 3.3-1.593 4.553 0 1.252-.477 2.277-1.059 2.277s-.793.43-.468.956-.076 2.551-.89 4.5c-.815 1.949-1.166 3.545-.782 3.547.596.002 13.097-4.99 14.019-5.598.658-.434-5.419-11.771-6.504-12.133-.621-.207-1.846.647-2.723 1.898M177 268.021c0 1.057-1.049 2.818-9.93 16.676-2.889 4.509-4.974 8.649-4.634 9.2.74 1.197 10.536.335 28.447-2.502l3.382-.535-.553-6.096c-.646-7.132-1.629-8.026-9.634-8.764-5.824-.537-7.848-2.518-3.649-3.572 3.141-.788 3.171-1.107.321-3.484-2.544-2.122-3.75-2.419-3.75-.923m199.556 5.535c-.377 2.006-.485 3.848-.241 4.093.245.244.753-1.198 1.129-3.205.377-2.006.485-3.848.241-4.093-.245-.244-.753 1.198-1.129 3.205m-187.367-1.869c-1.018.404-.928.944.405 2.417 2.276 2.515 3.619 2.401 3.226-.276-.34-2.308-1.494-2.989-3.631-2.141m-5.376 1.996c.721.289 1.584.253 1.916-.079.332-.332-.258-.568-1.312-.525-1.165.048-1.402.285-.604.604m168.854 3.984c-1.151 1.15-.729 2.333.833 2.333.825 0 1.5-.675 1.5-1.5 0-1.562-1.183-1.984-2.333-.833M195 282.304c0 6.385 1.016 8.347 4.088 7.896 3.493-.512 3.499-.556.695-4.546-3.861-5.493-4.783-6.139-4.783-3.35M374.5 284c-.38 1.729-.482 3.351-.227 3.606.255.255.751-.974 1.102-2.731.834-4.168.026-4.976-.875-.875m-57.5-.941c0 .582.45.781 1 .441s1-.816 1-1.059-.45-.441-1-.441-1 .477-1 1.059m34.015 1.191c.013 1.819.201 1.963.985.75 1.253-1.939 1.253-3 0-3-.55 0-.993 1.012-.985 2.25m-51.376 3.156c-3.364 4.411-3.332 4.594.815 4.594 3.4 0 3.447-.059 2.983-3.684-.627-4.894-.739-4.92-3.798-.91M349 289.5c0 .825.177 1.5.393 1.5.216 0 .652-.675.969-1.5.316-.825.139-1.5-.393-1.5-.533 0-.969.675-.969 1.5m24.079.168c-.043.643-.338 1.993-.655 3-.547 1.741-.518 1.744.571.044.631-.983.925-2.333.655-3-.355-.875-.514-.887-.571-.044m-176.72 15.512c.367 7.249.869 13.381 1.115 13.628.53.53 14.152-4.942 20.377-8.185l4.351-2.267-3.419-3.428c-9.419-9.447-14.5-12.928-18.866-12.928h-4.225l.667 13.18M347 294.5c0 .825.177 1.5.393 1.5.216 0 .652-.675.969-1.5.316-.825.139-1.5-.393-1.5-.533 0-.969.675-.969 1.5m23.6 2.1c-.356.927-.422 1.911-.147 2.186.275.275.791-.259 1.147-1.186.356-.927.422-1.911.147-2.186-.275-.275-.791.259-1.147 1.186m-82.655 2.966c-.715.861-2.57 2.223-4.122 3.026-3.595 1.858-3.558 2.189.796 7.276 1.99 2.325 3.297 4.544 2.905 4.93-.393.386-2.592-1.457-4.886-4.095l-4.172-4.797-4.733 2.094c-2.603 1.151-4.727 2.41-4.721 2.797.012.671 28.22 9.304 28.731 8.793.514-.514-7.066-21.59-7.764-21.59-.404 0-1.319.705-2.034 1.566m80.679 1.973c-.965 2.514-.681 3.163.498 1.136.584-1.004.851-2.036.593-2.293-.257-.258-.749.263-1.091 1.157m-26.041.327c-.431.697-.513 1.537-.183 1.867.895.895 1.871-.421 1.387-1.871-.338-1.016-.574-1.016-1.204.004m24.041 4.673c-.965 2.514-.681 3.163.498 1.136.584-1.004.851-2.036.593-2.293-.257-.258-.749.263-1.091 1.157m-26.957.128c-.367.366-.667 1.131-.667 1.7 0 .626.466.567 1.183-.15.651-.651.951-1.416.667-1.7-.284-.284-.817-.217-1.183.15m-3.647 4.809c-.789.95-.865 1.524-.201 1.524 1.208 0 2.617-1.897 1.924-2.591-.252-.251-1.027.229-1.723 1.067m-102.752 2.189-4.232 2.465 2.208 2.987c2.447 3.309 4.112 3.304 10.979-.031 2.048-.995 3.484-1.421 3.191-.947-.687 1.112-.198 1.087 5.143-.258 3.286-.827 4.443-1.608 4.443-3 0-2.181-1.037-2.404-2.947-.631-1.007.935-1.173.943-.659.029 1.777-3.154-12.91-3.651-18.126-.614m25.482-1.585c-.962.561-1.75 1.907-1.75 2.991 0 2.308-1.456 2.977-13.25 6.085-8.62 2.271-10.126 3.457-7.332 5.776.78.647 3.308 4.077 5.617 7.622 5.207 7.992 7.52 8.459 10.861 2.196 1.247-2.337 4.702-8.791 7.678-14.341 2.976-5.55 5.114-10.387 4.752-10.75-.975-.975-4.575-.744-6.576.421M207 321.935c-1.375.42-4.304 1.685-6.509 2.812-13.477 6.885-36.212 13.699-50.491 15.133l-8.5.854 7 .132c10.52.199 26.335-3.657 44.5-10.848 14.712-5.824 23.813-11.079 14-8.083M325.472 346.9c-1.085 1.045-5.093 3.97-8.908 6.5-3.815 2.53-6.594 4.6-6.175 4.6 1.326 0 14.03-8.604 16.016-10.848 2.356-2.661 1.74-2.827-.933-.252m-30.228 1.925c.357 1.365-.494 2.245-3.384 3.497-2.123.919-3.86 2.123-3.86 2.675 0 1.46 1.569 1.227 2.951-.438.657-.792 1.837-1.194 2.622-.893.785.302 1.427.05 1.427-.559 0-.609.723-1.107 1.607-1.107 1.055 0 1.398-.544 1-1.582-.334-.87-.607-1.995-.607-2.5 0-.505-.502-.918-1.117-.918-.614 0-.902.821-.639 1.825M283 357c-1.293.835-1.266.971.191.985.93.008 1.969-.435 2.309-.985.782-1.266-.542-1.266-2.5 0m-5 2c-1.282.828-1.246.972.25.985.962.008 1.75-.435 1.75-.985 0-1.22-.113-1.22-2 0m-5.5 2c-.34.55.084 1 .941 1s1.559-.45 1.559-1-.423-1-.941-1-1.219.45-1.559 1m29.634.632c-1.852.808-3.131 1.704-2.843 1.992.552.553 6.709-2.337 6.709-3.15 0-.568.282-.652-3.866 1.158M266 363c0 .55.675 1 1.5 1s1.5-.45 1.5-1-.675-1-1.5-1-1.5.45-1.5 1m-5.187 1.683c.721.289 1.584.253 1.916-.079.332-.332-.258-.568-1.312-.525-1.165.048-1.402.285-.604.604M295 365c-.825.533-1.05.969-.5.969s1.675-.436 2.5-.969c.825-.533 1.05-.969.5-.969s-1.675.436-2.5.969m-45 1c-1.282.828-1.246.972.25.985.963.008 1.75-.435 1.75-.985 0-1.22-.113-1.22-2 0m5.813-.317c.721.289 1.584.253 1.916-.079.332-.332-.258-.568-1.312-.525-1.165.048-1.402.285-.604.604M232 367c0 .55.675 1 1.5 1s1.5-.45 1.5-1-.675-1-1.5-1-1.5.45-1.5 1m6 0c0 .55.675 1 1.5 1s1.5-.45 1.5-1-.675-1-1.5-1-1.5.45-1.5 1m5.473-.044c.325.526 1.252.703 2.059.393 2.067-.793 1.824-1.349-.591-1.349-1.132 0-1.793.43-1.468.956M290 367c-.825.533-1.05.969-.5.969s1.675-.436 2.5-.969c.825-.533 1.05-.969.5-.969s-1.675.436-2.5.969m-6 2c-1.333.862-1.333.969 0 .969.825 0 2.175-.436 3-.969 1.333-.862 1.333-.969 0-.969-.825 0-2.175.436-3 .969m-6 2c-1.828 1.181-.249 1.181 2.5 0 1.319-.567 1.489-.878.5-.914-.825-.031-2.175.381-3 .914" fill-rule="evenodd"/>
<path fill="#3ad4e6" stroke="#3ad4e6" d="M230.532 124.113c-22.363 3.258-50.408 17.509-65.464 33.266-4.95 5.181-3.206 5.434 2.543.369 15.657-13.796 25.829-20.167 41.797-26.177 8.444-3.179 24.23-6.571 30.575-6.571 2.759 0 5.017-.45 5.017-1 0-1.167-6.004-1.12-14.468.113m24.052 2.528c-.471 1.228-.309 1.388.643.635.7-.554 1.948-1.257 2.773-1.563 1.024-.379.82-.58-.643-.634-1.179-.043-2.426.66-2.773 1.562m-6.977 1.941c-.854 2.226-.788 2.418.834 2.418.793 0 1.766-.526 2.164-1.17.498-.805.16-.954-1.082-.477-1.527.586-1.61.457-.542-.83.72-.868.827-1.523.248-1.523-.558 0-1.288.712-1.622 1.582m-33.496 40.168c-2.247 14.768-2.159 17.305.2 5.758 1.598-7.824 2.686-11.076 3.776-11.286 1.243-.24 12.198 6.553 22.015 13.65 1.044.755 1.898 1.132 1.898.838 0-1.048-24.208-17.71-25.73-17.71-.455 0-1.426 3.938-2.159 8.75m64.556-8.083c-.367.366-.667 1.461-.667 2.432 0 .972-.9 2.052-2 2.401-1.1.349-2 .966-2 1.37 0 .405-4.118 5.114-9.151 10.465l-9.152 9.729-2.344-2.202c-1.29-1.212-2.598-1.951-2.907-1.642-.308.309.702 1.437 2.246 2.507 4.493 3.113 5.091 3.337 4.945 1.858-.173-1.762 18.848-21.268 22.662-23.24 2.312-1.195 2.62-1.738 1.649-2.907-1.305-1.573-2.256-1.797-3.281-.771m106.403 8.024c.039.445.457 1.709.93 2.809.829 1.928.862 1.921.93-.191.038-1.205-.38-2.469-.93-2.809-.55-.34-.968-.254-.93.191m-101.986 2.048c-.046.682 1.266 6.048 2.916 11.924 3.616 12.877 3.593 11.714.25 13.048l-2.75 1.098 3.088-.497c2.931-.472 3.146-.276 4.205 3.845l1.117 4.343-.518-4.757c-.371-3.418-.147-4.87.796-5.155 4.038-1.22 5.202-1.862 4.117-2.269-.657-.247-2.158.067-3.335.697-2.803 1.5-2.495 2.06-6.402-11.615-1.87-6.546-3.438-11.343-3.484-10.662m94.416 2.944c-1.65.882-5.25 3.429-8 5.662-2.75 2.232-5.187 4.193-5.417 4.357-.229.164-.158.556.157.871.315.316 4.042-1.029 8.282-2.988 7.191-3.322 9.478-3.71 9.478-1.609 0 1.554 4.04 10.318 4.53 9.828.263-.264-.032-1.945-.656-3.737-.975-2.795-.829-3.802 1.025-7.102 2.159-3.841 2.159-3.845.107-3.69-1.27.095-1.859.665-1.542 1.492.282.735.068 1.062-.475.726-.544-.336-.989-1.709-.989-3.052 0-2.895-2.052-3.135-6.5-.758m-32.742 1.832c.264 1.383.877 2.759 1.361 3.059.485.299.881 1.812.881 3.363 0 4.303 2.202 5.542 4.847 2.726 1.194-1.271 1.83-2.688 1.412-3.148-.417-.459-.247-.543.378-.186.625.357 1.632.052 2.237-.678.85-1.023.475-1.641-1.636-2.703-1.506-.757-3.932-2.18-5.392-3.162-3.613-2.431-4.656-2.245-4.088.729m-113.999 7.735c.554 8.965 1.07 9.41 1.162 1 .043-3.988-.287-7.25-.735-7.25-.447 0-.64 2.813-.427 6.25m89.231-1.762c.988 1.191.963 1.589-.127 1.993-.75.278-5.839 2.097-11.31 4.043-5.471 1.945-10.158 3.748-10.417 4.006-1.27 1.27 2.822.098 12.478-3.573 5.848-2.224 10.869-3.808 11.157-3.519.288.288-.699 5.076-2.194 10.639s-2.483 10.35-2.196 10.637c.287.287.806-.769 1.154-2.346.348-1.577.86-3.543 1.138-4.368 4.221-12.501 4.449-19 .669-19-1.292 0-1.357.277-.352 1.488m-175.286 3.262c-5.164 8.346-12.557 26.854-14.079 35.25-.249 1.375-.948 4.657-1.553 7.294-1.638 7.138-2.574 22.706-1.365 22.706.553 0 1.317-4.124 1.698-9.164 1.311-17.373 5.286-31.273 14.028-49.056 5.178-10.535 5.896-14.503 1.271-7.03m209.846.143c.372 1.316 1.975 4.442 3.563 6.946 1.588 2.504 2.887 4.847 2.887 5.208C361 200.32 325.795 239 322.815 239c-3.613 0 7.168-19.315 12.319-22.072 3.221-1.724 2.432-5.291-1.017-4.601-1.586.317-6.086.308-10-.02-6.827-.573-7.12-.703-7.18-3.202-.062-2.516-.094-2.53-.951-.4-.84 2.085-1.364 2.183-9.687 1.798-9.635-.445-4.744.539 9.701 1.952 3.575.349 8.027.902 9.893 1.228l3.392.593-2.392 1.84c-1.316 1.012-2.711 1.85-3.099 1.862-.388.012-3.034 1.395-5.88 3.073-5.064 2.985-5.16 3.001-4.52.75 1.591-5.596 1.402-7.787-.25-2.904-1.005 2.969-2.683 6.024-3.73 6.79-1.454 1.063-1.602 1.579-.625 2.182.703.435 1.051 1.43.772 2.211-.323.904 1.155 2.428 4.064 4.193 2.756 1.671 4.37 3.297 4.065 4.094-.36.936.194 1.187 1.901.86 3.667-.701 3.1 1.414-1.402 5.233-1.979 1.678-2.452 1.75-3.292.5-.852-1.269-.947-1.263-.729.04.138.825-.241 2.4-.842 3.5-1.417 2.591-2.729 10.5-1.743 10.5.418 0 1.573-.736 2.567-1.636 1.671-1.512 1.856-1.512 2.434-.006.344.897 1.05 1.368 1.569 1.047.575-.355.522-1.092-.135-1.883-1.947-2.347 10.737-12.912 13.405-11.165 1.142.748 5.318 3.457 9.279 6.019 9.421 6.094 9.403 5.756.508 9.849-19.966 9.186-17.614 8.721-19.559 3.86-.862-2.153-2.069-4.225-2.683-4.604-.613-.38-.182 1.139.958 3.375 2.6 5.096 2.588 5.597-.176 6.894-2.016.946-1.87 1.04 1.399.903 2.007-.084 3.441-.494 3.187-.91-.255-.416.353-1.047 1.351-1.401.997-.354 6.479-2.82 12.181-5.479 5.702-2.659 10.768-4.588 11.258-4.285 1.395.862 3.799-2.081 2.895-3.544-.439-.71-1.258-1.005-1.822-.657-.804.497-14.56-7.972-18.511-11.397-.721-.625 32.371-34.98 33.694-34.98.893 0 4.419 12.947 6.193 22.732.937 5.175 2.089 8.976 2.619 8.648.542-.335.64-2.358.229-4.733-.395-2.281-.83-5.047-.967-6.147-.409-3.302-3.456-14.71-5.128-19.203l-1.564-4.202 4.448-5.298c9.27-11.041 9.977-12.287 8.641-15.221-.833-1.828-1.698-2.452-2.781-2.006-.865.356-2.958 1.048-4.653 1.539-1.92.556-4.301 2.591-6.322 5.406-3.55 4.943-4.288 4.965-6.593.193-.852-1.765-2.467-4.333-3.589-5.708l-2.04-2.5.675 2.393m-180.244 6.699-2.806 2.591 3.5-2.267c4.557-2.953 4.516-2.916 3.222-2.916-.611 0-2.373 1.166-3.916 2.592m65.39 1.863c-9.607 1.739-21.78 8.175-29.348 15.518-27.047 26.241-20.174 74.936 12.996 92.089 6.712 3.471 8.155 4.938 4.856 4.938-.99 0-2.364.563-3.054 1.25-1.004 1.001-1.638.751-3.178-1.25-1.058-1.375-1.934-1.964-1.946-1.309-.012.655.428 1.469.978 1.809 2.663 1.646-1.438 4.189-17.5 10.85l-6 2.489-.65-2.17c-.358-1.193-.695-7.457-.75-13.919-.098-11.52-.056-11.752 2.15-11.85 2.134-.094 2.122-.135-.25-.79-2.09-.576-2.573-1.422-2.942-5.15l-.442-4.46-.558 4.955-.558 4.955-8.5 1.221c-23.497 3.376-25.345 3.08-21.317-3.416.926-1.493 1.179-2.265.563-1.715-2.577 2.299-4.154 6.803-3.083 8.805.579 1.081 1.341 1.546 1.694 1.033.354-.513 7.486-1.822 15.849-2.909l15.207-1.976.506 5.023c1.482 14.691 1.389 22.557-.278 23.432-2.079 1.092-22.488 6.728-27.141 7.495-8.376 1.38-26.447.899-30.5-.812-9.58-4.044-13.91-11.339-13.855-23.341.038-8.426-.789-9.02-3.69-2.652-18.369 40.323 15.881 54.095 75.796 30.479 2.889-1.138 5.475-2.073 5.748-2.077.875-.013 27.981-13.474 28.501-14.153 2.095-2.739 15.026-7.843 20-7.895 23.433-.245 42.719-12.348 53.625-33.652 3.129-6.113 3.421-7.366 2.895-12.4-.453-4.338-.24-5.888.947-6.873 4.352-3.611-.273-25.823-7.645-36.717-13.162-19.449-35.982-29.042-59.126-24.855m-55.934 1.252c1.244.239 3.044.23 4-.02s-.062-.446-2.262-.435c-2.2.011-2.982.216-1.738.455M235 195.886c-15.221 4.921-26.216 15.45-29.36 28.114-.577 2.324-.53 2.307.67-.25.88-1.875 1.616-2.424 2.313-1.727.563.563 2.116 1.231 3.45 1.483 2.683.508 11.123 8.931 10.082 10.063-.36.392.517.432 1.95.089 2.037-.487 2.81-.163 3.548 1.49.808 1.81 1.152 1.915 2.399.733 4.757-4.511 4.608-3.496-.349 2.382-6.546 7.763-6.775 8.819-2.78 12.814 3.602 3.602 6.021 3.683 10 .334l3.077-2.589-.015 2.839c-.011 2.058-.262 2.45-.91 1.427-1.466-2.317-4.01.856-2.96 3.693 1.058 2.861 2.641 2.845 3.122-.031.207-1.238.707 2.7 1.112 8.75.957 14.287.712 13.937 10.015 14.292 9.597.367 9.63.303 9.651-18.607.009-7.527.346-13.219.75-12.651 3.858 5.433 9.135 6.566 12.695 2.726 3.844-4.146 3.254-6.952-2.828-13.436-3.717-3.963-4.779-5.635-3.521-5.541.992.075 1.601.338 1.355.585-.836.835 1.753 3.114 2.802 2.466.638-.394.759-.099.312.761-.4.773-.083.618.706-.345.789-.963 2.336-1.75 3.437-1.75 1.114 0 4.081-2.221 6.68-5 2.573-2.75 5.136-5 5.696-5 .561 0 .741-.45.401-1-.34-.55.084-1 .941-1s1.575-.562 1.594-1.25c.02-.687.726-.125 1.57 1.25.843 1.375 1.302 1.742 1.02.815-.282-.927-.031-1.846.558-2.043.661-.22.235-1.992-1.115-4.638-8.717-17.088-37.163-27.007-58.068-20.248m-57.921-.098c-.043.708 1.496 5.366 3.421 10.35 1.925 4.985 3.5 9.171 3.5 9.303 0 .132-2.588.834-5.75 1.56-3.162.727-6.152 1.673-6.643 2.103-.491.43 1.759.149 5-.625 7.952-1.899 7.978-1.895 9.386 1.503 1.706 4.119.996 5.244-4.605 7.307-5.219 1.922-4.657 2.126-8.152-2.952-.696-1.011-.583-.397.25 1.363.833 1.761 1.514 3.391 1.514 3.625 0 .233-4.772 2.377-10.604 4.765-5.832 2.387-10.161 4.488-9.62 4.669.541.18 3.851-.962 7.354-2.539 15.06-6.779 13.15-7.435 20.346 6.985 2.825 5.66 4.551 8.168 4.934 7.168.831-2.164.739-2.583-.41-1.873-.55.34-1 .22-1-.268 0-.487-2.025-4.641-4.5-9.232-5.373-9.965-5.272-8.651-.808-10.516 7.168-2.995 7.745-2.93 9.18 1.038.721 1.995 1.501 3.438 1.733 3.206.232-.231-.242-2.008-1.052-3.947-.811-1.94-1.192-3.809-.847-4.154.345-.345.193-.627-.338-.627-.937 0-3.897-6.859-3.21-7.438.188-.158 1.692-.781 3.342-1.384l3-1.097-3.879.21-3.88.209-3.363-9c-4.227-11.311-4.204-11.259-4.299-9.712m15.171-.072c1.512.229 3.988.229 5.5 0s.275-.416-2.75-.416-4.262.187-2.75.416M214.5 198c.34.55.816 1 1.059 1s.441-.45.441-1-.477-1-1.059-1-.781.45-.441 1m-5.803 3.393c-.409 1.041-.508 2.129-.221 2.417.913.912 1.715-.583 1.333-2.482-.35-1.74-.404-1.737-1.112.065M196.5 212.472c-2.2.725-3.1 1.331-2 1.347 1.1.016 3.575-.578 5.5-1.319 4.505-1.735 1.746-1.757-3.5-.028m124.5 8.827c-11.228 6.192-12.503 8.62-6.534 12.451 1.928 1.238 3.887 2.25 4.352 2.25.688 0 10.811-13.981 13.575-18.75 1.365-2.354-1.858-1.209-11.393 4.049M192 223c-1.828 1.181-.249 1.181 2.5 0 1.319-.567 1.489-.878.5-.914-.825-.031-2.175.381-3 .914m-47.921 11.583c.048 1.165.285 1.402.604.605.289-.722.253-1.585-.079-1.917-.332-.332-.568.258-.525 1.312m3.921 6.635c0 2.387 2.218 2.265 3.761-.207 1.122-1.797 1.001-1.969-1.259-1.782-1.656.137-2.502.81-2.502 1.989m5 4.016c.825.833 6 5.24 11.5 9.794 13.897 11.504 12.883 10.353 11.542 13.105-1.079 2.216-1.056 2.246.365.477 1.444-1.797 1.653-1.807 4.305-.19l2.788 1.699-2.471-2.149-2.471-2.148 2.277-4.161c2.057-3.76.985-2.952-2.129 1.605-1.123 1.644-1.412 1.575-4.206-1-8.217-7.575-26.385-21.968-21.5-17.032m-9 6.266c0 .825.177 1.5.393 1.5.216 0 .652-.675.969-1.5.316-.825.139-1.5-.393-1.5-.533 0-.969.675-.969 1.5m117.556 2.214c-.877 2.285.629 3.384 2.62 1.913 1.556-1.151 1.545-1.32-.161-2.386-1.476-.922-1.959-.829-2.459.473m111.091 8.262c-3.692 56.334-46.062 103.92-101.972 114.526-8.962 1.7-9.013 1.686-8.894-2.487.097-3.438-.196-3.363-9.031 2.285-6 3.836-5.96 4.099 1 6.5 3.163 1.091 6.588 2.325 7.612 2.742 1.656.674 1.786.408 1.171-2.392-.594-2.703-.412-3.15 1.281-3.15 11.063 0 39.642-11.054 54.868-21.223C352.38 336.272 375 295.646 375 257.631c0-9.369-1.655-6.313-2.353 4.345M184 254c0 .55.45 1 1 1s1-.45 1-1-.45-1-1-1-1 .45-1 1m78 1.059c0 .582.45.781 1 .441s1-.816 1-1.059-.45-.441-1-.441-1 .477-1 1.059m-77.5 16.105c-3.3 1.112-6.212 2.23-6.471 2.483-1.098 1.076 2.827 2.323 7.356 2.338 4.033.012 5.33.494 7.432 2.762l2.545 2.747-.667-2.497c-.367-1.373-.681-2.947-.697-3.497-.016-.55-.361-.478-.766.159-.525.825-1.448.584-3.199-.834l-2.462-1.993 2.465-1.894c3.081-2.368 2.036-2.325-5.536.226m-13.075 4.086c-1.431 2.337-3.501 5.523-4.601 7.079-1.1 1.555-1.768 3.06-1.484 3.344.283.284 1.587-1.214 2.897-3.329 5.629-9.088 6.893-11.344 6.357-11.344-.313 0-1.739 1.913-3.169 4.25m139.825-1.128c-2.887 1.11-5.25 2.395-5.25 2.857 0 .462 1.778-.02 3.952-1.07 2.173-1.05 4.397-1.909 4.941-1.909.544 0 1.267-.45 1.607-1 .765-1.238 1.048-1.299-5.25 1.122m-127.981-.429c.973.254 2.323.237 3-.037.677-.274-.119-.481-1.769-.461-1.65.02-2.204.244-1.231.498M326.1 276c-.036.275 1.494 4.325 3.4 9s3.443 7.6 3.415 6.5c-.045-1.762-6.645-16.773-6.815-15.5m26.979 2.583c.048 1.165.285 1.402.604.605.289-.722.253-1.585-.079-1.917-.332-.332-.568.258-.525 1.312M303.965 288l-.465 4.5-4-.296c-2.989-.221-3.621-.036-2.5.735.825.566 2.684 1.037 4.131 1.046 2.521.014 2.674.337 3.69 7.765l1.059 7.75-.358-7.691c-.337-7.231-.229-7.717 1.81-8.114l2.168-.423-2.195-.136c-1.881-.116-2.244-.816-2.535-4.886l-.339-4.75-.466 4.5m8.785 5.662c.688.278 1.813.278 2.5 0 .688-.277.125-.504-1.25-.504s-1.937.227-1.25.504m5.249.588c.001.413 3.263.689 7.251.614 7.635-.144 6.802-.591-2.001-1.075-2.887-.159-5.25.048-5.25.461m-26.972 2.25c-.005 1.517 5.563 18.423 6.315 19.175.877.878.845 4.325-.04 4.325-.385 0-4.481-1.154-9.103-2.564-4.623-1.41-8.609-2.359-8.858-2.11-.249.249 2.16 1.239 5.353 2.2 3.193.962 8.468 2.587 11.721 3.611 6.017 1.895 9.868 2.455 5.909.859-1.69-.681-2.971-3.4-5.742-12.186-3.265-10.358-5.546-15.823-5.555-13.31M279 305.792c0 1.015 8.187 9.354 8.691 8.851.225-.226-.963-1.913-2.641-3.749-1.677-1.837-3.05-3.641-3.05-4.01 0-.368-.675-.929-1.5-1.246-.825-.316-1.5-.247-1.5.154m-13 5.683c0 1.363-5.023 11.222-12.496 24.525-4.236 7.54-5.608 7.269-12.668-2.5-7.075-9.79-7.079-9.877-.586-11.791 2.887-.851 4.35-1.549 3.25-1.551-1.1-.003-3.8.561-6 1.251-3.795 1.192-4.118 1.123-6.303-1.326l-2.303-2.583 1.266 2.5c.696 1.375 1.169 2.837 1.052 3.25-.116.413.168.75.632.75 1.212 0 13.859 18.114 14.305 20.489.49 2.606 3.677 3.204 4.458.835.588-1.782 1.911-4.402 11.533-22.824 5.088-9.742 5.438-9.955 13.36-8.164 1.65.374.894-.112-1.679-1.078-2.574-.967-5.011-2.095-5.417-2.508-1.201-1.221-2.404-.858-2.404.725m70.564.232c-.542 1.425-.428 1.54.56.56.684-.679.991-1.486.683-1.793-.308-.308-.867.247-1.243 1.233M306.3 316c0 3.025.187 4.262.416 2.75.229-1.512.229-3.988 0-5.5s-.416-.275-.416 2.75m-55.3 2c-2.06.66-2.148.816-.5.885 1.1.046 2.675-.352 3.5-.885 1.752-1.132.536-1.132-3 0m-42 2.67c-.825.281-3.412 1.371-5.75 2.421-8.556 3.843-12.858 5.712-17.75 7.708-8.379 3.42-27.524 8.058-36.23 8.776-5.106.422-7.995 1.061-7.61 1.684.953 1.543 15.454.02 26.641-2.797 16.497-4.153 44.442-15.451 43.198-17.463-.339-.55-.703-.963-.808-.92-.105.043-.866.309-1.691.591m97 3.33c0 1.111.667 2 1.5 2s1.5-.889 1.5-2-.667-2-1.5-2-1.5.889-1.5 2m-10 25.941c0 .518.445 1.216.989 1.552.566.35.734-.051.393-.941-.665-1.732-1.382-2.049-1.382-.611M238 367c0 .55.477 1 1.059 1s.781-.45.441-1-.816-1-1.059-1-.441.45-.441 1" fill-rule="evenodd"/>
<path fill="#10a9cf" stroke="#10a9cf" d="M286.24 206.378c7.901 7.67 12.423 18.378 11.402 26.997-.333 2.812-1.176 5.303-1.874 5.535-3.014 1.004-10.577 10.105-10.055 12.1.951 3.636-3.602 8.579-11.676 12.678-7.389 3.751-11.037 6.612-11.037 8.656 0 .571-.661.165-1.468-.903-1.368-1.809-1.471-1.66-1.5 2.187-.044 5.705-1.433 6.513-10.601 6.166-7.677-.291-7.77-.327-8.845-3.393-.597-1.704-1.608-2.917-2.247-2.696-.638.221-2.663-.978-4.5-2.665-6.563-6.027-7.617-6.874-10.459-8.405-4.261-2.295-8.839-6.856-9.171-9.135-.16-1.1-.385-2.737-.5-3.639-.274-2.145-5.354-7.199-6.515-6.481-1.693 1.047-3.194-4.465-3.179-11.677.012-6.147.514-8.227 3.427-14.193 1.876-3.844 3.259-7.143 3.072-7.33-.903-.902-8.607 10.357-8.187 11.964.258.983.04 1.691-.483 1.572-2.675-.607-6.642 13.439-7.283 25.784-1.029 19.828 10.392 39.84 28.716 50.312l7.545 4.312 5.339-2.674c18.246-9.137 51.223-31.306 66.089-44.427 4.722-4.168 4.75-4.23 4.75-10.503 0-14.888-7.622-29.835-20.739-40.667l-3.761-3.107 3.74 3.632m-73.368 1.372c-1.243 1.586-1.208 1.621.378.378 1.666-1.307 2.195-2.128 1.372-2.128-.207 0-.995.787-1.75 1.75m79.079 67.408c-6.782 5.065-20.009 14.366-29.391 20.669l-17.06 11.46 8.525-.579c14.559-.989 27.535-7.241 37.832-18.23 5.221-5.571 14.175-20.78 12.953-22.001-.29-.29-6.076 3.617-12.859 8.681" fill-rule="evenodd"/>
</svg>